  0
SECTION
  2
HEADER
  9
$ACADVER
  1
AC1015
  9
$ACADMAINTVER
 70
     6
  9
$DWGCODEPAGE
  3
ANSI_1252
  9
$INSBASE
 10
0.0
 20
0.0
 30
0.0
  9
$EXTMIN
 10
0.0
 20
0.0
 30
0.0
  9
$EXTMAX
 10
420.0
 20
297.0
 30
0.0
  9
$LIMMIN
 10
0.0
 20
0.0
  9
$LIMMAX
 10
420.0
 20
297.0
  9
$ORTHOMODE
 70
     0
  9
$REGENMODE
 70
     1
  9
$FILLMODE
 70
     1
  9
$QTEXTMODE
 70
     0
  9
$MIRRTEXT
 70
     1
  9
$LTSCALE
 40
1.0
  9
$ATTMODE
 70
     1
  9
$TEXTSIZE
 40
3.5
  9
$TRACEWID
 40
1.0
  9
$TEXTSTYLE
  7
Standard
  9
$CLAYER
  8
0
  9
$CELTYPE
  6
ByLayer
  9
$CECOLOR
 62
   256
  9
$CELTSCALE
 40
1.0
  9
$DISPSILH
 70
     0
  9
$DIMSCALE
 40
1.0
  9
$DIMASZ
 40
3.302
  9
$DIMEXO
 40
1.0
  9
$DIMDLI
 40
3.75
  9
$DIMRND
 40
0.0
  9
$DIMDLE
 40
0.0
  9
$DIMEXE
 40
1.0
  9
$DIMTP
 40
0.0
  9
$DIMTM
 40
0.0
  9
$DIMTXT
 40
3.5
  9
$DIMCEN
 40
2.5
  9
$DIMTSZ
 40
0.0
  9
$DIMTOL
 70
     0
  9
$DIMLIM
 70
     0
  9
$DIMTIH
 70
     1
  9
$DIMTOH
 70
     1
  9
$DIMSE1
 70
     0
  9
$DIMSE2
 70
     0
  9
$DIMTAD
 70
     1
  9
$DIMZIN
 70
     1
  9
$DIMBLK
  1

  9
$DIMASO
 70
     1
  9
$DIMSHO
 70
     1
  9
$DIMPOST
  1

  9
$DIMAPOST
  1

  9
$DIMALT
 70
     0
  9
$DIMALTD
 70
     3
  9
$DIMALTF
 40
0.0393700787
  9
$DIMLFAC
 40
0.5
  9
$DIMTOFL
 70
     1
  9
$DIMTVP
 40
0.0
  9
$DIMTIX
 70
     0
  9
$DIMSOXD
 70
     0
  9
$DIMSAH
 70
     0
  9
$DIMBLK1
  1

  9
$DIMBLK2
  1

  9
$DIMSTYLE
  2
ISO-25
  9
$DIMCLRD
 70
     0
  9
$DIMCLRE
 70
     0
  9
$DIMCLRT
 70
     0
  9
$DIMTFAC
 40
1.0
  9
$DIMGAP
 40
1.524
  9
$DIMJUST
 70
     0
  9
$DIMSD1
 70
     0
  9
$DIMSD2
 70
     0
  9
$DIMTOLJ
 70
     0
  9
$DIMTZIN
 70
     1
  9
$DIMALTZ
 70
     0
  9
$DIMALTTZ
 70
     0
  9
$DIMUPT
 70
     0
  9
$DIMDEC
 70
     2
  9
$DIMTDEC
 70
     2
  9
$DIMALTU
 70
     2
  9
$DIMALTTD
 70
     3
  9
$DIMTXSTY
  7
Standard
  9
$DIMAUNIT
 70
     0
  9
$DIMADEC
 70
     2
  9
$DIMALTRND
 40
0.0
  9
$DIMAZIN
 70
     0
  9
$DIMDSEP
 70
    44
  9
$DIMATFIT
 70
     3
  9
$DIMFRAC
 70
     0
  9
$DIMLDRBLK
  1

  9
$DIMLUNIT
 70
     2
  9
$DIMLWD
 70
    -2
  9
$DIMLWE
 70
    -2
  9
$DIMTMOVE
 70
     0
  9
$LUNITS
 70
     2
  9
$LUPREC
 70
     2
  9
$SKETCHINC
 40
1.0
  9
$FILLETRAD
 40
10.0
  9
$AUNITS
 70
     0
  9
$AUPREC
 70
     2
  9
$MENU
  1
.
  9
$ELEVATION
 40
0.0
  9
$PELEVATION
 40
0.0
  9
$THICKNESS
 40
0.0
  9
$LIMCHECK
 70
     0
  9
$CHAMFERA
 40
0.0
  9
$CHAMFERB
 40
0.0
  9
$CHAMFERC
 40
0.0
  9
$CHAMFERD
 40
0.0
  9
$SKPOLY
 70
     0
  9
$TDCREATE
 40
2459661.724396204
  9
$TDUCREATE
 40
2459661.89106287
  9
$TDUPDATE
 40
2459661.724399005
  9
$TDUUPDATE
 40
2459661.891065671
  9
$TDINDWG
 40
0.0000000116
  9
$TDUSRTIMER
 40
0.0000000116
  9
$USRTIMER
 70
     1
  9
$ANGBASE
 50
0.0
  9
$ANGDIR
 70
     0
  9
$PDMODE
 70
     0
  9
$PDSIZE
 40
-1.0
  9
$PLINEWID
 40
0.0
  9
$SPLFRAME
 70
     0
  9
$SPLINETYPE
 70
     6
  9
$SPLINESEGS
 70
     8
  9
$HANDSEED
  5
153
  9
$SURFTAB1
 70
     6
  9
$SURFTAB2
 70
     6
  9
$SURFTYPE
 70
     6
  9
$SURFU
 70
     6
  9
$SURFV
 70
     6
  9
$UCSBASE
  2

  9
$UCSNAME
  2

  9
$UCSORG
 10
0.0
 20
0.0
 30
0.0
  9
$UCSXDIR
 10
1.0
 20
0.0
 30
0.0
  9
$UCSYDIR
 10
0.0
 20
1.0
 30
0.0
  9
$UCSORTHOREF
  2

  9
$UCSORTHOVIEW
 70
     0
  9
$UCSORGTOP
 10
0.0
 20
0.0
 30
0.0
  9
$UCSORGBOTTOM
 10
0.0
 20
0.0
 30
0.0
  9
$UCSORGLEFT
 10
0.0
 20
0.0
 30
0.0
  9
$UCSORGRIGHT
 10
0.0
 20
0.0
 30
0.0
  9
$UCSORGFRONT
 10
0.0
 20
0.0
 30
0.0
  9
$UCSORGBACK
 10
0.0
 20
0.0
 30
0.0
  9
$PUCSBASE
  2

  9
$PUCSNAME
  2

  9
$PUCSORG
 10
0.0
 20
0.0
 30
0.0
  9
$PUCSXDIR
 10
1.0
 20
0.0
 30
0.0
  9
$PUCSYDIR
 10
0.0
 20
1.0
 30
0.0
  9
$PUCSORTHOREF
  2

  9
$PUCSORTHOVIEW
 70
     0
  9
$PUCSORGTOP
 10
0.0
 20
0.0
 30
0.0
  9
$PUCSORGBOTTOM
 10
0.0
 20
0.0
 30
0.0
  9
$PUCSORGLEFT
 10
0.0
 20
0.0
 30
0.0
  9
$PUCSORGRIGHT
 10
0.0
 20
0.0
 30
0.0
  9
$PUCSORGFRONT
 10
0.0
 20
0.0
 30
0.0
  9
$PUCSORGBACK
 10
0.0
 20
0.0
 30
0.0
  9
$USERI1
 70
     0
  9
$USERI2
 70
     0
  9
$USERI3
 70
     0
  9
$USERI4
 70
     0
  9
$USERI5
 70
     0
  9
$USERR1
 40
0.0
  9
$USERR2
 40
0.0
  9
$USERR3
 40
0.0
  9
$USERR4
 40
0.0
  9
$USERR5
 40
0.0
  9
$WORLDVIEW
 70
     1
  9
$SHADEDGE
 70
     3
  9
$SHADEDIF
 70
    70
  9
$TILEMODE
 70
     1
  9
$MAXACTVP
 70
    64
  9
$PINSBASE
 10
0.0
 20
0.0
 30
0.0
  9
$PLIMCHECK
 70
     0
  9
$PEXTMIN
 10
1.0000000000E+20
 20
1.0000000000E+20
 30
1.0000000000E+20
  9
$PEXTMAX
 10
-1.0000000000E+20
 20
-1.0000000000E+20
 30
-1.0000000000E+20
  9
$PLIMMIN
 10
0.0
 20
0.0
  9
$PLIMMAX
 10
420.0
 20
297.0
  9
$UNITMODE
 70
     0
  9
$VISRETAIN
 70
     1
  9
$PLINEGEN
 70
     0
  9
$PSLTSCALE
 70
     1
  9
$TREEDEPTH
 70
  3020
  9
$CMLSTYLE
  2
Standard
  9
$CMLJUST
 70
     0
  9
$CMLSCALE
 40
20.0
  9
$PROXYGRAPHICS
 70
     1
  9
$MEASUREMENT
 70
     1
  9
$CELWEIGHT
370
    -1
  9
$ENDCAPS
280
     0
  9
$JOINSTYLE
280
     0
  9
$LWDISPLAY
290
     1
  9
$INSUNITS
 70
     4
  9
$HYPERLINKBASE
  1

  9
$STYLESHEET
  1

  9
$XEDIT
290
     1
  9
$CEPSNTYPE
380
     0
  9
$PSTYLEMODE
290
     1
  9
$FINGERPRINTGUID
  2
{4493e0c9-5ec5-4103-8706-ba150dfcd2b1}
  9
$VERSIONGUID
  2
{FAEB1C32-E019-11D5-929B-00C0DF256EC4}
  9
$EXTNAMES
290
     1
  9
$PSVPSCALE
 40
0.0
  9
$OLESTARTUP
290
     0
  0
ENDSEC
  0
SECTION
  2
CLASSES
  0
CLASS
  1
ACDBDICTIONARYWDFLT
  2
AcDbDictionaryWithDefault
  3
ObjectDBX Classes
 90
        0
280
     0
281
     0
  0
CLASS
  1
VISUALSTYLE
  2
AcDbVisualStyle
  3
ObjectDBX Classes
 90
     4095
280
     0
281
     0
  0
CLASS
  1
MATERIAL
  2
AcDbMaterial
  3
ObjectDBX Classes
 90
     1153
280
     0
281
     0
  0
CLASS
  1
SCALE
  2
AcDbScale
  3
ObjectDBX Classes
 90
     1153
280
     0
281
     0
  0
CLASS
  1
TABLESTYLE
  2
AcDbTableStyle
  3
ObjectDBX Classes
 90
     4095
280
     0
281
     0
  0
CLASS
  1
MLEADERSTYLE
  2
AcDbMLeaderStyle
  3
ACDB_MLEADERSTYLE_CLASS
 90
     4095
280
     0
281
     0
  0
CLASS
  1
SUN
  2
AcDbSun
  3
SCENEOE
 90
     1153
280
     0
281
     0
  0
CLASS
  1
ACDBPLACEHOLDER
  2
AcDbPlaceHolder
  3
ObjectDBX Classes
 90
        0
280
     0
281
     0
  0
CLASS
  1
LAYOUT
  2
AcDbLayout
  3
ObjectDBX Classes
 90
        0
280
     0
281
     0
  0
ENDSEC
  0
SECTION
  2
TABLES
  0
TABLE
  2
VPORT
  5
8
330
0
100
AcDbSymbolTable
 70
     1
  0
VPORT
  5
29
330
8
100
AcDbSymbolTableRecord
100
AcDbViewportTableRecord
  2
*Active
 70
     0
 10
0.0
 20
0.0
 11
1.0
 21
1.0
 12
210.0
 22
148.5
 13
0.0
 23
0.0
 14
10.0
 24
10.0
 15
10.0
 25
10.0
 16
0.0
 26
0.0
 36
1.0
 17
0.0
 27
0.0
 37
0.0
 40
297.0
 41
1.4141414141
 42
50.0
 43
0.0
 44
0.0
 50
0.0
 51
0.0
 71
     0
 72
  2000
 73
     1
 74
     3
 75
     0
 76
     0
 77
     0
 78
     0
281
     0
 65
     1
110
0.0
120
0.0
130
0.0
111
1.0
121
0.0
131
0.0
112
0.0
122
1.0
132
0.0
 79
     0
146
0.0
  0
ENDTAB
  0
TABLE
  2
LTYPE
  5
5
330
0
100
AcDbSymbolTable
 70
     6
  0
LTYPE
  5
14
330
5
100
AcDbSymbolTableRecord
100
AcDbLinetypeTableRecord
  2
ByBlock
 70
     0
  3

 72
    65
 73
     0
 40
0.0
  0
LTYPE
  5
15
330
5
100
AcDbSymbolTableRecord
100
AcDbLinetypeTableRecord
  2
ByLayer
 70
     0
  3

 72
    65
 73
     0
 40
0.0
  0
LTYPE
  5
16
330
5
100
AcDbSymbolTableRecord
100
AcDbLinetypeTableRecord
  2
Continuous
 70
     0
  3
Solid line
 72
    65
 73
     0
 40
0.0
  0
LTYPE
  5
6E
330
5
100
AcDbSymbolTableRecord
100
AcDbLinetypeTableRecord
  2
HIDDEN
 70
     0
  3
Hidden __ __ __ __ __ __ __ __ __ __ __ __ __ __
 72
    65
 73
     2
 40
1.905
 49
1.27
 74
     0
 49
-0.635
 74
     0
  0
LTYPE
  5
6F
330
5
100
AcDbSymbolTableRecord
100
AcDbLinetypeTableRecord
  2
PHANTOM
 70
     0
  3
Phantom ______  __  __  ______  __  __  ______
 72
    65
 73
     6
 40
12.7
 49
6.35
 74
     0
 49
-1.27
 74
     0
 49
1.27
 74
     0
 49
-1.27
 74
     0
 49
1.27
 74
     0
 49
-1.27
 74
     0
  0
LTYPE
  5
70
330
5
100
AcDbSymbolTableRecord
100
AcDbLinetypeTableRecord
  2
CENTER
 70
     0
  3
Center ____ _ ____ _ ____ _ ____ _ ____ _ ____
 72
    65
 73
     4
 40
10.16
 49
6.35
 74
     0
 49
-1.27
 74
     0
 49
1.27
 74
     0
 49
-1.27
 74
     0
  0
LTYPE
  5
71
330
5
100
AcDbSymbolTableRecord
100
AcDbLinetypeTableRecord
  2
CENTERX2
 70
     0
  3
Center (2x) ________  __  ________  __  _____
 72
    65
 73
     4
 40
20.32
 49
12.7
 74
     0
 49
-2.54
 74
     0
 49
2.54
 74
     0
 49
-2.54
 74
     0
  0
LTYPE
  5
72
330
5
100
AcDbSymbolTableRecord
100
AcDbLinetypeTableRecord
  2
DOT2
 70
     0
  3
Dot (.5x) ........................................
 72
    65
 73
     2
 40
0.635
 49
0.0
 74
     0
 49
-0.635
 74
     0
  0
ENDTAB
  0
TABLE
  2
LAYER
  5
2
330
0
100
AcDbSymbolTable
 70
     1
  0
LAYER
  5
10
330
2
100
AcDbSymbolTableRecord
100
AcDbLayerTableRecord
  2
0
 70
     0
 62
     7
  6
Continuous
370
    -3
390
F
  0
ENDTAB
  0
TABLE
  2
STYLE
  5
3
330
0
100
AcDbSymbolTable
 70
     3
  0
STYLE
  5
11
330
3
100
AcDbSymbolTableRecord
100
AcDbTextStyleTableRecord
  2
Standard
 70
     0
 40
0.0
 41
1.0
 50
0.0
 71
     0
 42
3.5
  3
txt
  4

  0
STYLE
  5
7D
330
3
100
AcDbSymbolTableRecord
100
AcDbTextStyleTableRecord
  2
SLDTEXTSTYLE0
 70
     0
 40
0.0
 41
0.75
 50
0.0
 71
     0
 42
3.5
  3
TXT
  4

  0
STYLE
  5
14F
330
3
100
AcDbSymbolTableRecord
100
AcDbTextStyleTableRecord
  2
SLDTEXTSTYLE1
 70
     0
 40
0.0
 41
0.7
 50
0.0
 71
     0
 42
3.5
  3
TXT
  4

  0
ENDTAB
  0
TABLE
  2
VIEW
  5
6
330
0
100
AcDbSymbolTable
 70
     0
  0
ENDTAB
  0
TABLE
  2
UCS
  5
7
330
0
100
AcDbSymbolTable
 70
     0
  0
ENDTAB
  0
TABLE
  2
APPID
  5
9
330
0
100
AcDbSymbolTable
 70
     1
  0
APPID
  5
12
330
9
100
AcDbSymbolTableRecord
100
AcDbRegAppTableRecord
  2
ACAD
 70
     0
  0
ENDTAB
  0
TABLE
  2
DIMSTYLE
  5
A
330
0
100
AcDbSymbolTable
 70
     6
100
AcDbDimStyleTable
  0
DIMSTYLE
105
27
330
A
100
AcDbSymbolTableRecord
100
AcDbDimStyleTableRecord
  2
ISO-25
 70
     0
 41
2.5
 42
0.625
 43
3.75
 44
1.25
 73
     0
 74
     0
 77
     1
 78
     8
140
2.5
141
2.5
143
0.0393700787
147
0.625
171
     3
172
     1
178
     0
271
     2
272
     2
274
     3
278
    44
283
     0
284
     8
340
11
  0
DIMSTYLE
105
7E
102
{ACAD_REACTORS
330
7C
330
96
330
AD
330
E5
330
EF
330
F9
330
103
102
}
330
A
100
AcDbSymbolTableRecord
100
AcDbDimStyleTableRecord
  2
SLDDIMSTYLE0
 70
     0
 41
3.302
 44
0.0
 45
0.000000001
 73
     0
 74
     0
 77
     1
 78
    12
 79
     3
140
3.5
144
0.5
147
0.875
173
     1
178
     0
271
     2
272
     2
276
     2
284
    12
340
7D
  0
DIMSTYLE
105
89
102
{ACAD_REACTORS
330
88
102
}
330
A
100
AcDbSymbolTableRecord
100
AcDbDimStyleTableRecord
  2
SLDDIMSTYLE1
 70
     0
 41
3.302
 44
0.0
 45
0.000000001
 73
     0
 74
     0
 77
     1
 78
     4
 79
     1
140
3.5
144
0.5
147
0.875
172
     1
173
     1
178
     0
271
     2
272
     2
276
     2
284
    12
289
     0
340
7D
  0
DIMSTYLE
105
A1
102
{ACAD_REACTORS
330
A0
330
10D
102
}
330
A
100
AcDbSymbolTableRecord
100
AcDbDimStyleTableRecord
  2
SLDDIMSTYLE2
 70
     0
 41
3.302
 44
0.0
 45
0.000000001
 73
     0
 74
     0
 77
     1
 78
    12
 79
     3
140
3.5
144
0.5
147
0.875
172
     1
173
     1
178
     0
271
     2
272
     2
276
     2
284
    12
289
     0
340
7D
  0
DIMSTYLE
105
D9
102
{ACAD_REACTORS
330
D8
102
}
330
A
100
AcDbSymbolTableRecord
100
AcDbDimStyleTableRecord
  2
SLDDIMSTYLE3
 70
     0
 41
3.302
 44
0.0
 45
0.000000001
 73
     0
 74
     0
 77
     1
 78
     4
 79
     1
140
3.5
141
0.0
144
0.5
147
0.875
172
     1
173
     1
178
     0
271
     2
272
     2
276
     2
284
    12
340
7D
341
DA
343
DA
  0
DIMSTYLE
105
11A
102
{ACAD_REACTORS
330
119
102
}
330
A
100
AcDbSymbolTableRecord
100
AcDbDimStyleTableRecord
  2
SLDDIMSTYLE4
 70
     0
 41
3.302
 44
0.0
 45
0.000000001
 73
     0
 74
     0
 77
     1
 78
     4
 79
     1
140
3.5
144
0.5
147
0.875
173
     1
178
     0
271
     2
272
     2
276
     2
284
    12
340
7D
  0
ENDTAB
  0
TABLE
  2
BLOCK_RECORD
  5
1
330
0
100
AcDbSymbolTable
 70
    18
  0
BLOCK_RECORD
  5
1F
330
1
100
AcDbSymbolTableRecord
100
AcDbBlockTableRecord
  2
*Model_Space
340
22
  0
BLOCK_RECORD
  5
1B
330
1
100
AcDbSymbolTableRecord
100
AcDbBlockTableRecord
  2
*Paper_Space
340
1E
  0
BLOCK_RECORD
  5
23
330
1
100
AcDbSymbolTableRecord
100
AcDbBlockTableRecord
  2
*Paper_Space0
340
26
  0
BLOCK_RECORD
  5
7F
330
1
100
AcDbSymbolTableRecord
100
AcDbBlockTableRecord
  2
_D
340
0
  0
BLOCK_RECORD
  5
8A
330
1
100
AcDbSymbolTableRecord
100
AcDbBlockTableRecord
  2
_D_1
340
0
  0
BLOCK_RECORD
  5
97
330
1
100
AcDbSymbolTableRecord
100
AcDbBlockTableRecord
  2
_D_2
340
0
  0
BLOCK_RECORD
  5
A2
330
1
100
AcDbSymbolTableRecord
100
AcDbBlockTableRecord
  2
_D_3
340
0
  0
BLOCK_RECORD
  5
AE
330
1
100
AcDbSymbolTableRecord
100
AcDbBlockTableRecord
  2
_D_4
340
0
  0
BLOCK_RECORD
  5
B7
330
1
100
AcDbSymbolTableRecord
100
AcDbBlockTableRecord
  2
SW_CENTERMARKSYMBOL_0
340
0
102
{BLKREFS
331
C2
102
}
  0
BLOCK_RECORD
  5
C3
330
1
100
AcDbSymbolTableRecord
100
AcDbBlockTableRecord
  2
SW_CENTERMARKSYMBOL_1
340
0
102
{BLKREFS
331
CE
102
}
  0
BLOCK_RECORD
  5
DA
330
1
100
AcDbSymbolTableRecord
100
AcDbBlockTableRecord
  2
_None
340
0
  0
BLOCK_RECORD
  5
DD
330
1
100
AcDbSymbolTableRecord
100
AcDbBlockTableRecord
  2
_D_5
340
0
  0
BLOCK_RECORD
  5
E6
330
1
100
AcDbSymbolTableRecord
100
AcDbBlockTableRecord
  2
_D_6
340
0
  0
BLOCK_RECORD
  5
F0
330
1
100
AcDbSymbolTableRecord
100
AcDbBlockTableRecord
  2
_D_7
340
0
  0
BLOCK_RECORD
  5
FA
330
1
100
AcDbSymbolTableRecord
100
AcDbBlockTableRecord
  2
_D_8
340
0
  0
BLOCK_RECORD
  5
104
330
1
100
AcDbSymbolTableRecord
100
AcDbBlockTableRecord
  2
_D_9
340
0
  0
BLOCK_RECORD
  5
10E
330
1
100
AcDbSymbolTableRecord
100
AcDbBlockTableRecord
  2
_D_10
340
0
  0
BLOCK_RECORD
  5
11B
330
1
100
AcDbSymbolTableRecord
100
AcDbBlockTableRecord
  2
_D_11
340
0
  0
BLOCK_RECORD
  5
124
330
1
100
AcDbSymbolTableRecord
100
AcDbBlockTableRecord
  2
SW_CENTERMARKSYMBOL_2
340
0
102
{BLKREFS
331
12F
102
}
  0
BLOCK_RECORD
  5
130
330
1
100
AcDbSymbolTableRecord
100
AcDbBlockTableRecord
  2
SW_CENTERMARKSYMBOL_3
340
0
102
{BLKREFS
331
13B
102
}
  0
ENDTAB
  0
ENDSEC
  0
SECTION
  2
BLOCKS
  0
BLOCK
  5
20
330
1F
100
AcDbEntity
  8
0
100
AcDbBlockBegin
  2
*Model_Space
 70
     0
 10
0.0
 20
0.0
 30
0.0
  3
*Model_Space
  1

  0
ENDBLK
  5
21
330
1F
100
AcDbEntity
  8
0
100
AcDbBlockEnd
  0
BLOCK
  5
1C
330
1B
100
AcDbEntity
 67
     1
  8
0
100
AcDbBlockBegin
  2
*Paper_Space
 70
     0
 10
0.0
 20
0.0
 30
0.0
  3
*Paper_Space
  1

  0
ENDBLK
  5
1D
330
1B
100
AcDbEntity
 67
     1
  8
0
100
AcDbBlockEnd
  0
BLOCK
  5
24
330
23
100
AcDbEntity
  8
0
100
AcDbBlockBegin
  2
*Paper_Space0
 70
     0
 10
0.0
 20
0.0
 30
0.0
  3
*Paper_Space0
  1

  0
ENDBLK
  5
25
330
23
100
AcDbEntity
  8
0
100
AcDbBlockEnd
  0
BLOCK
  5
80
330
7F
100
AcDbEntity
  8
0
100
AcDbBlockBegin
  2
_D
 70
     0
 10
0.0
 20
0.0
 30
0.0
  3
_D
  1

  0
SOLID
  5
82
330
7F
100
AcDbEntity
  8
0
  6
Continuous
 62
     7
370
    18
100
AcDbTrace
 10
221.8019418012
 20
250.1832881566
 30
0.0
 11
221.2939418012
 21
246.8812881566
 31
0.0
 12
222.3099418012
 22
246.8812881566
 32
0.0
 13
222.3099418012
 23
246.8812881566
 33
0.0
  0
SOLID
  5
83
330
7F
100
AcDbEntity
  8
0
  6
Continuous
 62
     7
370
    18
100
AcDbTrace
 10
221.8019418012
 20
198.4330646786
 30
0.0
 11
222.3099418012
 21
201.7350646786
 31
0.0
 12
221.2939418012
 22
201.7350646786
 32
0.0
 13
221.2939418012
 23
201.7350646786
 33
0.0
  0
LINE
  5
84
330
7F
100
AcDbEntity
  8
0
  6
Continuous
 62
     7
370
     0
100
AcDbLine
 10
229.3373540276
 20
250.1832881566
 30
0.0
 11
220.8019418012
 21
250.1832881566
 31
0.0
  0
LINE
  5
85
330
7F
100
AcDbEntity
  8
0
  6
Continuous
 62
     7
370
     0
100
AcDbLine
 10
229.3373540276
 20
198.4330646786
 30
0.0
 11
220.8019418012
 21
198.4330646786
 31
0.0
  0
LINE
  5
86
330
7F
100
AcDbEntity
  8
0
  6
Continuous
 62
     7
370
     0
100
AcDbLine
 10
221.8019418012
 20
250.1832881566
 30
0.0
 11
221.8019418012
 21
198.4330646786
 31
0.0
  0
MTEXT
  5
87
330
7F
100
AcDbEntity
  8
0
  6
Continuous
 62
     7
370
    18
100
AcDbMText
 10
217.2902048866
 20
222.9282066393
 30
0.0
 40
3.5
 41
0.0
 71
     1
 72
     1
  1
25.88
  7
SLDTEXTSTYLE0
 11
-7.044195017643634E-15
 21
1.0
 31
0.0
 73
     1
 44
1.0
  0
ENDBLK
  5
81
330
7F
100
AcDbEntity
  8
0
100
AcDbBlockEnd
  0
BLOCK
  5
8B
330
8A
100
AcDbEntity
  8
0
100
AcDbBlockBegin
  2
_D_1
 70
     0
 10
0.0
 20
0.0
 30
0.0
  3
_D_1
  1

  0
SOLID
  5
8D
330
8A
100
AcDbEntity
  8
0
  6
Continuous
 62
     7
370
    18
100
AcDbTrace
 10
247.0385844619
 20
204.7076647913
 30
0.0
 11
243.7365844619
 21
205.2156647913
 31
0.0
 12
243.7365844619
 22
204.1996647913
 32
0.0
 13
243.7365844619
 23
204.1996647913
 33
0.0
  0
SOLID
  5
8E
330
8A
100
AcDbEntity
  8
0
  6
Continuous
 62
     7
370
    18
100
AcDbTrace
 10
259.0385844619
 20
204.7076647913
 30
0.0
 11
262.3405844619
 21
204.1996647913
 31
0.0
 12
262.3405844619
 22
205.2156647913
 32
0.0
 13
262.3405844619
 23
205.2156647913
 33
0.0
  0
LINE
  5
8F
330
8A
100
AcDbEntity
  8
0
  6
Continuous
 62
     7
370
     0
100
AcDbLine
 10
247.0385844619
 20
213.3081764176
 30
0.0
 11
247.0385844619
 21
203.7076647913
 31
0.0
  0
LINE
  5
90
330
8A
100
AcDbEntity
  8
0
  6
Continuous
 62
     7
370
     0
100
AcDbLine
 10
259.0385844619
 20
213.3081764176
 30
0.0
 11
259.0385844619
 21
203.7076647913
 31
0.0
  0
LINE
  5
91
330
8A
100
AcDbEntity
  8
0
  6
Continuous
 62
     7
370
     0
100
AcDbLine
 10
247.0385844619
 20
204.7076647913
 30
0.0
 11
240.6885844619
 21
204.7076647913
 31
0.0
  0
LINE
  5
92
330
8A
100
AcDbEntity
  8
0
  6
Continuous
 62
     7
370
     0
100
AcDbLine
 10
247.0385844619
 20
204.7076647913
 30
0.0
 11
259.0385844619
 21
204.7076647913
 31
0.0
  0
LINE
  5
93
330
8A
100
AcDbEntity
  8
0
  6
Continuous
 62
     7
370
     0
100
AcDbLine
 10
259.0385844619
 20
204.7076647913
 30
0.0
 11
278.0237829626
 21
204.7076647913
 31
0.0
  0
MTEXT
  5
94
330
8A
100
AcDbEntity
  8
0
  6
Continuous
 62
     7
370
    18
100
AcDbMText
 10
263.693955572
 20
209.2194018805
 30
0.0
 40
3.5
 41
0.0
 71
     1
 72
     1
  1
%%c
  7
SLDTEXTSTYLE0
 73
     1
 44
1.0
  0
MTEXT
  5
95
330
8A
100
AcDbEntity
  8
0
  6
Continuous
 62
     7
370
    18
100
AcDbMText
 10
268.9723929704
 20
209.2728740572
 30
0.0
 40
3.5
 41
0.0
 71
     1
 72
     1
  1
6.00
  7
SLDTEXTSTYLE0
 73
     1
 44
1.0
  0
ENDBLK
  5
8C
330
8A
100
AcDbEntity
  8
0
100
AcDbBlockEnd
  0
BLOCK
  5
98
330
97
100
AcDbEntity
  8
0
100
AcDbBlockBegin
  2
_D_2
 70
     0
 10
0.0
 20
0.0
 30
0.0
  3
_D_2
  1

  0
SOLID
  5
9A
330
97
100
AcDbEntity
  8
0
  6
Continuous
 62
     7
370
    18
100
AcDbTrace
 10
342.8640599757
 20
214.3081764176
 30
0.0
 11
343.3720599757
 21
217.6101764176
 31
0.0
 12
342.3560599757
 22
217.6101764176
 32
0.0
 13
342.3560599757
 23
217.6101764176
 33
0.0
  0
SOLID
  5
9B
330
97
100
AcDbEntity
  8
0
  6
Continuous
 62
     7
370
    18
100
AcDbTrace
 10
342.8640599757
 20
260.1832881566
 30
0.0
 11
342.3560599757
 21
256.8812881566
 31
0.0
 12
343.3720599757
 22
256.8812881566
 32
0.0
 13
343.3720599757
 23
256.8812881566
 33
0.0
  0
LINE
  5
9C
330
97
100
AcDbEntity
  8
0
  6
Continuous
 62
     7
370
     0
100
AcDbLine
 10
302.1497463451
 20
214.3081764176
 30
0.0
 11
343.8640599757
 21
214.3081764176
 31
0.0
  0
LINE
  5
9D
330
97
100
AcDbEntity
  8
0
  6
Continuous
 62
     7
370
     0
100
AcDbLine
 10
313.8509767793
 20
260.1832881566
 30
0.0
 11
343.8640599757
 21
260.1832881566
 31
0.0
  0
LINE
  5
9E
330
97
100
AcDbEntity
  8
0
  6
Continuous
 62
     7
370
     0
100
AcDbLine
 10
342.8640599757
 20
214.3081764176
 30
0.0
 11
342.8640599757
 21
260.1832881566
 31
0.0
  0
MTEXT
  5
9F
330
97
100
AcDbEntity
  8
0
  6
Continuous
 62
     7
370
    18
100
AcDbMText
 10
338.3523230612
 20
222.9282066393
 30
0.0
 40
3.5
 41
0.0
 71
     1
 72
     1
  1
22.94
  7
SLDTEXTSTYLE0
 11
6.123233995736766E-17
 21
1.0
 31
0.0
 73
     1
 44
1.0
  0
ENDBLK
  5
99
330
97
100
AcDbEntity
  8
0
100
AcDbBlockEnd
  0
BLOCK
  5
A3
330
A2
100
AcDbEntity
  8
0
100
AcDbBlockBegin
  2
_D_3
 70
     0
 10
0.0
 20
0.0
 30
0.0
  3
_D_3
  1

  0
SOLID
  5
A5
330
A2
100
AcDbEntity
  8
0
  6
Continuous
 62
     7
370
    18
100
AcDbTrace
 10
253.0385844619
 20
190.4518055277
 30
0.0
 11
256.3405844619
 21
189.9438055277
 31
0.0
 12
256.3405844619
 22
190.9598055277
 32
0.0
 13
256.3405844619
 23
190.9598055277
 33
0.0
  0
SOLID
  5
A6
330
A2
100
AcDbEntity
  8
0
  6
Continuous
 62
     7
370
    18
100
AcDbTrace
 10
230.3373540276
 20
190.4518055277
 30
0.0
 11
227.0353540276
 21
190.9598055277
 31
0.0
 12
227.0353540276
 22
189.9438055277
 32
0.0
 13
227.0353540276
 23
189.9438055277
 33
0.0
  0
LINE
  5
A7
330
A2
100
AcDbEntity
  8
0
  6
Continuous
 62
     7
370
     0
100
AcDbLine
 10
253.0385844619
 20
202.3081764176
 30
0.0
 11
253.0385844619
 21
189.4518055277
 31
0.0
  0
LINE
  5
A8
330
A2
100
AcDbEntity
  8
0
  6
Continuous
 62
     7
370
     0
100
AcDbLine
 10
230.3373540276
 20
197.4330646786
 30
0.0
 11
230.3373540276
 21
189.4518055277
 31
0.0
  0
LINE
  5
A9
330
A2
100
AcDbEntity
  8
0
  6
Continuous
 62
     7
370
     0
100
AcDbLine
 10
253.0385844619
 20
190.4518055277
 30
0.0
 11
259.3885844619
 21
190.4518055277
 31
0.0
  0
LINE
  5
AA
330
A2
100
AcDbEntity
  8
0
  6
Continuous
 62
     7
370
     0
100
AcDbLine
 10
253.0385844619
 20
190.4518055277
 30
0.0
 11
230.3373540276
 21
190.4518055277
 31
0.0
  0
LINE
  5
AB
330
A2
100
AcDbEntity
  8
0
  6
Continuous
 62
     7
370
     0
100
AcDbLine
 10
230.3373540276
 20
190.4518055277
 30
0.0
 11
223.9873540276
 21
190.4518055277
 31
0.0
  0
MTEXT
  5
AC
330
A2
100
AcDbEntity
  8
0
  6
Continuous
 62
     7
370
    18
100
AcDbMText
 10
233.7331339741
 20
194.9635424422
 30
0.0
 40
3.5
 41
0.0
 71
     1
 72
     1
  1
11.35
  7
SLDTEXTSTYLE0
 73
     1
 44
1.0
  0
ENDBLK
  5
A4
330
A2
100
AcDbEntity
  8
0
100
AcDbBlockEnd
  0
BLOCK
  5
AF
330
AE
100
AcDbEntity
  8
0
100
AcDbBlockBegin
  2
_D_4
 70
     0
 10
0.0
 20
0.0
 30
0.0
  3
_D_4
  1

  0
SOLID
  5
B1
330
AE
100
AcDbEntity
  8
0
  6
Continuous
 62
     7
370
    18
100
AcDbTrace
 10
290.1497463451
 20
179.0662982364
 30
0.0
 11
286.8477463451
 21
179.5742982364
 31
0.0
 12
286.8477463451
 22
178.5582982364
 32
0.0
 13
286.8477463451
 23
178.5582982364
 33
0.0
  0
SOLID
  5
B2
330
AE
100
AcDbEntity
  8
0
  6
Continuous
 62
     7
370
    18
100
AcDbTrace
 10
230.3373540276
 20
179.0662982364
 30
0.0
 11
233.6393540276
 21
178.5582982364
 31
0.0
 12
233.6393540276
 22
179.5742982364
 32
0.0
 13
233.6393540276
 23
179.5742982364
 33
0.0
  0
LINE
  5
B3
330
AE
100
AcDbEntity
  8
0
  6
Continuous
 62
     7
370
     0
100
AcDbLine
 10
290.1497463451
 20
202.3081764176
 30
0.0
 11
290.1497463451
 21
178.0662982364
 31
0.0
  0
LINE
  5
B4
330
AE
100
AcDbEntity
  8
0
  6
Continuous
 62
     7
370
     0
100
AcDbLine
 10
230.3373540276
 20
197.4330646786
 30
0.0
 11
230.3373540276
 21
178.0662982364
 31
0.0
  0
LINE
  5
B5
330
AE
100
AcDbEntity
  8
0
  6
Continuous
 62
     7
370
     0
100
AcDbLine
 10
290.1497463451
 20
179.0662982364
 30
0.0
 11
230.3373540276
 21
179.0662982364
 31
0.0
  0
MTEXT
  5
B6
330
AE
100
AcDbEntity
  8
0
  6
Continuous
 62
     7
370
    18
100
AcDbMText
 10
258.9119702501
 20
183.578035151
 30
0.0
 40
3.5
 41
0.0
 71
     1
 72
     1
  1
29.91
  7
SLDTEXTSTYLE0
 73
     1
 44
1.0
  0
ENDBLK
  5
B0
330
AE
100
AcDbEntity
  8
0
100
AcDbBlockEnd
  0
BLOCK
  5
B8
330
B7
100
AcDbEntity
  8
0
100
AcDbBlockBegin
  2
SW_CENTERMARKSYMBOL_0
 70
     0
 10
0.0
 20
0.0
 30
0.0
  3
SW_CENTERMARKSYMBOL_0
  1

  0
LINE
  5
BA
330
B7
100
AcDbEntity
  8
0
  6
Continuous
 62
     0
370
    18
100
AcDbLine
 10
0.0
 20
0.0
 30
0.0
 11
0.0
 21
5.0
 31
0.0
  0
LINE
  5
BB
330
B7
100
AcDbEntity
  8
0
  6
Continuous
 62
     0
370
    18
100
AcDbLine
 10
0.0
 20
0.0
 30
0.0
 11
-5.0
 21
0.0
 31
0.0
  0
LINE
  5
BC
330
B7
100
AcDbEntity
  8
0
  6
Continuous
 62
     0
370
    18
100
AcDbLine
 10
0.0
 20
0.0
 30
0.0
 11
0.0
 21
-5.0
 31
0.0
  0
LINE
  5
BD
330
B7
100
AcDbEntity
  8
0
  6
Continuous
 62
     0
370
    18
100
AcDbLine
 10
0.0
 20
0.0
 30
0.0
 11
5.0
 21
0.0
 31
0.0
  0
LINE
  5
BE
330
B7
100
AcDbEntity
  8
0
  6
Continuous
 62
     0
370
    18
100
AcDbLine
 10
0.0
 20
10.0
 30
0.0
 11
0.0
 21
11.0
 31
0.0
  0
LINE
  5
BF
330
B7
100
AcDbEntity
  8
0
  6
Continuous
 62
     0
370
    18
100
AcDbLine
 10
-10.0
 20
0.0
 30
0.0
 11
-11.0
 21
0.0
 31
0.0
  0
LINE
  5
C0
330
B7
100
AcDbEntity
  8
0
  6
Continuous
 62
     0
370
    18
100
AcDbLine
 10
0.0
 20
-10.0
 30
0.0
 11
0.0
 21
-11.0
 31
0.0
  0
LINE
  5
C1
330
B7
100
AcDbEntity
  8
0
  6
Continuous
 62
     0
370
    18
100
AcDbLine
 10
10.0
 20
0.0
 30
0.0
 11
11.0
 21
0.0
 31
0.0
  0
ENDBLK
  5
B9
330
B7
100
AcDbEntity
  8
0
100
AcDbBlockEnd
  0
BLOCK
  5
C4
330
C3
100
AcDbEntity
  8
0
100
AcDbBlockBegin
  2
SW_CENTERMARKSYMBOL_1
 70
     0
 10
0.0
 20
0.0
 30
0.0
  3
SW_CENTERMARKSYMBOL_1
  1

  0
LINE
  5
C6
330
C3
100
AcDbEntity
  8
0
  6
Continuous
 62
     0
370
    18
100
AcDbLine
 10
0.0
 20
0.0
 30
0.0
 11
0.0
 21
5.0
 31
0.0
  0
LINE
  5
C7
330
C3
100
AcDbEntity
  8
0
  6
Continuous
 62
     0
370
    18
100
AcDbLine
 10
0.0
 20
0.0
 30
0.0
 11
-5.0
 21
0.0
 31
0.0
  0
LINE
  5
C8
330
C3
100
AcDbEntity
  8
0
  6
Continuous
 62
     0
370
    18
100
AcDbLine
 10
0.0
 20
0.0
 30
0.0
 11
0.0
 21
-5.0
 31
0.0
  0
LINE
  5
C9
330
C3
100
AcDbEntity
  8
0
  6
Continuous
 62
     0
370
    18
100
AcDbLine
 10
0.0
 20
0.0
 30
0.0
 11
5.0
 21
0.0
 31
0.0
  0
LINE
  5
CA
330
C3
100
AcDbEntity
  8
0
  6
Continuous
 62
     0
370
    18
100
AcDbLine
 10
0.0
 20
10.0
 30
0.0
 11
0.0
 21
11.0
 31
0.0
  0
LINE
  5
CB
330
C3
100
AcDbEntity
  8
0
  6
Continuous
 62
     0
370
    18
100
AcDbLine
 10
-10.0
 20
0.0
 30
0.0
 11
-11.0
 21
0.0
 31
0.0
  0
LINE
  5
CC
330
C3
100
AcDbEntity
  8
0
  6
Continuous
 62
     0
370
    18
100
AcDbLine
 10
0.0
 20
-10.0
 30
0.0
 11
0.0
 21
-11.0
 31
0.0
  0
LINE
  5
CD
330
C3
100
AcDbEntity
  8
0
  6
Continuous
 62
     0
370
    18
100
AcDbLine
 10
10.0
 20
0.0
 30
0.0
 11
11.0
 21
0.0
 31
0.0
  0
ENDBLK
  5
C5
330
C3
100
AcDbEntity
  8
0
100
AcDbBlockEnd
  0
BLOCK
  5
DB
330
DA
100
AcDbEntity
  8
0
100
AcDbBlockBegin
  2
_None
 70
     0
 10
0.0
 20
0.0
 30
0.0
  3
_None
  1

  0
ENDBLK
  5
DC
330
DA
100
AcDbEntity
  8
0
100
AcDbBlockEnd
  0
BLOCK
  5
DE
330
DD
100
AcDbEntity
  8
0
100
AcDbBlockBegin
  2
_D_5
 70
     0
 10
0.0
 20
0.0
 30
0.0
  3
_D_5
  1

  0
SOLID
  5
E0
330
DD
100
AcDbEntity
  8
0
  6
Continuous
 62
     7
370
    18
100
AcDbTrace
 10
259.8442404249
 20
126.756478525
 30
0.0
 11
263.1462404249
 21
126.248478525
 31
0.0
 12
263.1462404249
 22
127.264478525
 32
0.0
 13
263.1462404249
 23
127.264478525
 33
0.0
  0
LINE
  5
E1
330
DD
100
AcDbEntity
  8
0
  6
Continuous
 62
     7
370
     0
100
AcDbLine
 10
259.8442404249
 20
126.756478525
 30
0.0
 11
275.6399456289
 21
126.756478525
 31
0.0
  0
LINE
  5
E2
330
DD
100
AcDbEntity
  8
0
  6
Continuous
 62
     7
370
     0
100
AcDbLine
 10
259.8442404249
 20
126.756478525
 30
0.0
 11
247.8442404249
 21
126.756478525
 31
0.0
  0
MTEXT
  5
E3
330
DD
100
AcDbEntity
  8
0
  6
Continuous
 62
     7
370
    18
100
AcDbMText
 10
261.3101182383
 20
131.219726463
 30
0.0
 40
3.5
 41
0.0
 71
     1
 72
     1
  1
%%c
  7
SLDTEXTSTYLE0
 73
     1
 44
1.0
  0
MTEXT
  5
E4
330
DD
100
AcDbEntity
  8
0
  6
Continuous
 62
     7
370
    18
100
AcDbMText
 10
266.5885556367
 20
131.2731986397
 30
0.0
 40
3.5
 41
0.0
 71
     1
 72
     1
  1
6.00
  7
SLDTEXTSTYLE0
 73
     1
 44
1.0
  0
ENDBLK
  5
DF
330
DD
100
AcDbEntity
  8
0
100
AcDbBlockEnd
  0
BLOCK
  5
E7
330
E6
100
AcDbEntity
  8
0
100
AcDbBlockBegin
  2
_D_6
 70
     0
 10
0.0
 20
0.0
 30
0.0
  3
_D_6
  1

  0
SOLID
  5
E9
330
E6
100
AcDbEntity
  8
0
  6
Continuous
 62
     7
370
    18
100
AcDbTrace
 10
312.8509767793
 20
162.5619326231
 30
0.0
 11
309.5489767793
 21
163.0699326231
 31
0.0
 12
309.5489767793
 22
162.0539326231
 32
0.0
 13
309.5489767793
 23
162.0539326231
 33
0.0
  0
SOLID
  5
EA
330
E6
100
AcDbEntity
  8
0
  6
Continuous
 62
     7
370
    18
100
AcDbTrace
 10
230.3373540276
 20
162.5619326231
 30
0.0
 11
233.6393540276
 21
162.0539326231
 31
0.0
 12
233.6393540276
 22
163.0699326231
 32
0.0
 13
233.6393540276
 23
163.0699326231
 33
0.0
  0
LINE
  5
EB
330
E6
100
AcDbEntity
  8
0
  6
Continuous
 62
     7
370
     0
100
AcDbLine
 10
312.8509767793
 20
149.938326004
 30
0.0
 11
312.8509767793
 21
163.5619326231
 31
0.0
  0
LINE
  5
EC
330
E6
100
AcDbEntity
  8
0
  6
Continuous
 62
     7
370
     0
100
AcDbLine
 10
230.3373540276
 20
149.938326004
 30
0.0
 11
230.3373540276
 21
163.5619326231
 31
0.0
  0
LINE
  5
ED
330
E6
100
AcDbEntity
  8
0
  6
Continuous
 62
     7
370
     0
100
AcDbLine
 10
312.8509767793
 20
162.5619326231
 30
0.0
 11
230.3373540276
 21
162.5619326231
 31
0.0
  0
MTEXT
  5
EE
330
E6
100
AcDbEntity
  8
0
  6
Continuous
 62
     7
370
    18
100
AcDbMText
 10
264.9563002125
 20
167.0736695377
 30
0.0
 40
3.5
 41
0.0
 71
     1
 72
     1
  1
41.26
  7
SLDTEXTSTYLE0
 73
     1
 44
1.0
  0
ENDBLK
  5
E8
330
E6
100
AcDbEntity
  8
0
100
AcDbBlockEnd
  0
BLOCK
  5
F1
330
F0
100
AcDbEntity
  8
0
100
AcDbBlockBegin
  2
_D_7
 70
     0
 10
0.0
 20
0.0
 30
0.0
  3
_D_7
  1

  0
SOLID
  5
F3
330
F0
100
AcDbEntity
  8
0
  6
Continuous
 62
     7
370
    18
100
AcDbTrace
 10
322.8509767793
 20
148.938326004
 30
0.0
 11
322.3429767793
 21
145.636326004
 31
0.0
 12
323.3589767793
 22
145.636326004
 32
0.0
 13
323.3589767793
 23
145.636326004
 33
0.0
  0
SOLID
  5
F4
330
F0
100
AcDbEntity
  8
0
  6
Continuous
 62
     7
370
    18
100
AcDbTrace
 10
322.8509767793
 20
71.0758407777
 30
0.0
 11
323.3589767793
 21
74.3778407777
 31
0.0
 12
322.3429767793
 22
74.3778407777
 32
0.0
 13
322.3429767793
 23
74.3778407777
 33
0.0
  0
LINE
  5
F5
330
F0
100
AcDbEntity
  8
0
  6
Continuous
 62
     7
370
     0
100
AcDbLine
 10
313.8509767793
 20
148.938326004
 30
0.0
 11
323.8509767793
 21
148.938326004
 31
0.0
  0
LINE
  5
F6
330
F0
100
AcDbEntity
  8
0
  6
Continuous
 62
     7
370
     0
100
AcDbLine
 10
313.8509767793
 20
71.0758407777
 30
0.0
 11
323.8509767793
 21
71.0758407777
 31
0.0
  0
LINE
  5
F7
330
F0
100
AcDbEntity
  8
0
  6
Continuous
 62
     7
370
     0
100
AcDbLine
 10
322.8509767793
 20
148.938326004
 30
0.0
 11
322.8509767793
 21
71.0758407777
 31
0.0
  0
MTEXT
  5
F8
330
F0
100
AcDbEntity
  8
0
  6
Continuous
 62
     7
370
    18
100
AcDbMText
 10
318.3392398648
 20
102.6163061855
 30
0.0
 40
3.5
 41
0.0
 71
     1
 72
     1
  1
38.93
  7
SLDTEXTSTYLE0
 11
-7.044195017643634E-15
 21
1.0
 31
0.0
 73
     1
 44
1.0
  0
ENDBLK
  5
F2
330
F0
100
AcDbEntity
  8
0
100
AcDbBlockEnd
  0
BLOCK
  5
FB
330
FA
100
AcDbEntity
  8
0
100
AcDbBlockBegin
  2
_D_8
 70
     0
 10
0.0
 20
0.0
 30
0.0
  3
_D_8
  1

  0
SOLID
  5
FD
330
FA
100
AcDbEntity
  8
0
  6
Continuous
 62
     7
370
    18
100
AcDbTrace
 10
204.7886164116
 20
99.3040342465
 30
0.0
 11
204.2806164116
 21
96.0020342465
 31
0.0
 12
205.2966164116
 22
96.0020342465
 32
0.0
 13
205.2966164116
 23
96.0020342465
 33
0.0
  0
SOLID
  5
FE
330
FA
100
AcDbEntity
  8
0
  6
Continuous
 62
     7
370
    18
100
AcDbTrace
 10
204.7886164116
 20
61.0758407777
 30
0.0
 11
205.2966164116
 21
64.3778407777
 31
0.0
 12
204.2806164116
 22
64.3778407777
 32
0.0
 13
204.2806164116
 23
64.3778407777
 33
0.0
  0
LINE
  5
FF
330
FA
100
AcDbEntity
  8
0
  6
Continuous
 62
     7
370
     0
100
AcDbLine
 10
270.9365642086
 20
99.3040342465
 30
0.0
 11
203.7886164116
 21
99.3040342465
 31
0.0
  0
LINE
  5
100
330
FA
100
AcDbEntity
  8
0
  6
Continuous
 62
     7
370
     0
100
AcDbLine
 10
229.3373540276
 20
61.0758407777
 30
0.0
 11
203.7886164116
 21
61.0758407777
 31
0.0
  0
LINE
  5
101
330
FA
100
AcDbEntity
  8
0
  6
Continuous
 62
     7
370
     0
100
AcDbLine
 10
204.7886164116
 20
99.3040342465
 30
0.0
 11
204.7886164116
 21
61.0758407777
 31
0.0
  0
MTEXT
  5
102
330
FA
100
AcDbEntity
  8
0
  6
Continuous
 62
     7
370
    18
100
AcDbMText
 10
200.2768794971
 20
78.599588065
 30
0.0
 40
3.5
 41
0.0
 71
     1
 72
     1
  1
19.11
  7
SLDTEXTSTYLE0
 11
-7.044195017643634E-15
 21
1.0
 31
0.0
 73
     1
 44
1.0
  0
ENDBLK
  5
FC
330
FA
100
AcDbEntity
  8
0
100
AcDbBlockEnd
  0
BLOCK
  5
105
330
104
100
AcDbEntity
  8
0
100
AcDbBlockBegin
  2
_D_9
 70
     0
 10
0.0
 20
0.0
 30
0.0
  3
_D_9
  1

  0
SOLID
  5
107
330
104
100
AcDbEntity
  8
0
  6
Continuous
 62
     7
370
    18
100
AcDbTrace
 10
193.1010746435
 20
126.756478525
 30
0.0
 11
192.5930746435
 21
123.454478525
 31
0.0
 12
193.6090746435
 22
123.454478525
 32
0.0
 13
193.6090746435
 23
123.454478525
 33
0.0
  0
SOLID
  5
108
330
104
100
AcDbEntity
  8
0
  6
Continuous
 62
     7
370
    18
100
AcDbTrace
 10
193.1010746435
 20
61.0758407777
 30
0.0
 11
193.6090746435
 21
64.3778407777
 31
0.0
 12
192.5930746435
 22
64.3778407777
 32
0.0
 13
192.5930746435
 23
64.3778407777
 33
0.0
  0
LINE
  5
109
330
104
100
AcDbEntity
  8
0
  6
Continuous
 62
     7
370
     0
100
AcDbLine
 10
241.8442404249
 20
126.756478525
 30
0.0
 11
192.1010746435
 21
126.756478525
 31
0.0
  0
LINE
  5
10A
330
104
100
AcDbEntity
  8
0
  6
Continuous
 62
     7
370
     0
100
AcDbLine
 10
229.3373540276
 20
61.0758407777
 30
0.0
 11
192.1010746435
 21
61.0758407777
 31
0.0
  0
LINE
  5
10B
330
104
100
AcDbEntity
  8
0
  6
Continuous
 62
     7
370
     0
100
AcDbLine
 10
193.1010746435
 20
126.756478525
 30
0.0
 11
193.1010746435
 21
61.0758407777
 31
0.0
  0
MTEXT
  5
10C
330
104
100
AcDbEntity
  8
0
  6
Continuous
 62
     7
370
    18
100
AcDbMText
 10
188.5893377289
 20
85.5817558746
 30
0.0
 40
3.5
 41
0.0
 71
     1
 72
     1
  1
32.84
  7
SLDTEXTSTYLE0
 11
-7.044195017643634E-15
 21
1.0
 31
0.0
 73
     1
 44
1.0
  0
ENDBLK
  5
106
330
104
100
AcDbEntity
  8
0
100
AcDbBlockEnd
  0
BLOCK
  5
10F
330
10E
100
AcDbEntity
  8
0
100
AcDbBlockBegin
  2
_D_10
 70
     0
 10
0.0
 20
0.0
 30
0.0
  3
_D_10
  1

  0
SOLID
  5
111
330
10E
100
AcDbEntity
  8
0
  6
Continuous
 62
     7
370
    18
100
AcDbTrace
 10
253.8442404249
 20
53.3021556792
 30
0.0
 11
257.1462404249
 21
52.7941556792
 31
0.0
 12
257.1462404249
 22
53.8101556792
 32
0.0
 13
257.1462404249
 23
53.8101556792
 33
0.0
  0
SOLID
  5
112
330
10E
100
AcDbEntity
  8
0
  6
Continuous
 62
     7
370
    18
100
AcDbTrace
 10
230.3373540276
 20
53.3021556792
 30
0.0
 11
227.0353540276
 21
53.8101556792
 31
0.0
 12
227.0353540276
 22
52.7941556792
 32
0.0
 13
227.0353540276
 23
52.7941556792
 33
0.0
  0
LINE
  5
113
330
10E
100
AcDbEntity
  8
0
  6
Continuous
 62
     7
370
     0
100
AcDbLine
 10
253.8442404249
 20
114.756478525
 30
0.0
 11
253.8442404249
 21
52.3021556792
 31
0.0
  0
LINE
  5
114
330
10E
100
AcDbEntity
  8
0
  6
Continuous
 62
     7
370
     0
100
AcDbLine
 10
230.3373540276
 20
60.0758407777
 30
0.0
 11
230.3373540276
 21
52.3021556792
 31
0.0
  0
LINE
  5
115
330
10E
100
AcDbEntity
  8
0
  6
Continuous
 62
     7
370
     0
100
AcDbLine
 10
253.8442404249
 20
53.3021556792
 30
0.0
 11
260.1942404249
 21
53.3021556792
 31
0.0
  0
LINE
  5
116
330
10E
100
AcDbEntity
  8
0
  6
Continuous
 62
     7
370
     0
100
AcDbLine
 10
253.8442404249
 20
53.3021556792
 30
0.0
 11
230.3373540276
 21
53.3021556792
 31
0.0
  0
LINE
  5
117
330
10E
100
AcDbEntity
  8
0
  6
Continuous
 62
     7
370
     0
100
AcDbLine
 10
230.3373540276
 20
53.3021556792
 30
0.0
 11
223.9873540276
 21
53.3021556792
 31
0.0
  0
MTEXT
  5
118
330
10E
100
AcDbEntity
  8
0
  6
Continuous
 62
     7
370
    18
100
AcDbMText
 10
238.8896516878
 20
57.8138925938
 30
0.0
 40
3.5
 41
0.0
 71
     1
 72
     1
  1
11.75
  7
SLDTEXTSTYLE0
 73
     1
 44
1.0
  0
ENDBLK
  5
110
330
10E
100
AcDbEntity
  8
0
100
AcDbBlockEnd
  0
BLOCK
  5
11C
330
11B
100
AcDbEntity
  8
0
100
AcDbBlockBegin
  2
_D_11
 70
     0
 10
0.0
 20
0.0
 30
0.0
  3
_D_11
  1

  0
SOLID
  5
11E
330
11B
100
AcDbEntity
  8
0
  6
Continuous
 62
     7
370
    18
100
AcDbTrace
 10
282.9365642086
 20
42.0699726812
 30
0.0
 11
279.6345642086
 21
42.5779726812
 31
0.0
 12
279.6345642086
 22
41.5619726812
 32
0.0
 13
279.6345642086
 23
41.5619726812
 33
0.0
  0
SOLID
  5
11F
330
11B
100
AcDbEntity
  8
0
  6
Continuous
 62
     7
370
    18
100
AcDbTrace
 10
230.3373540276
 20
42.0699726812
 30
0.0
 11
233.6393540276
 21
41.5619726812
 31
0.0
 12
233.6393540276
 22
42.5779726812
 32
0.0
 13
233.6393540276
 23
42.5779726812
 33
0.0
  0
LINE
  5
120
330
11B
100
AcDbEntity
  8
0
  6
Continuous
 62
     7
370
     0
100
AcDbLine
 10
282.9365642086
 20
87.3040342465
 30
0.0
 11
282.9365642086
 21
41.0699726812
 31
0.0
  0
LINE
  5
121
330
11B
100
AcDbEntity
  8
0
  6
Continuous
 62
     7
370
     0
100
AcDbLine
 10
230.3373540276
 20
60.0758407777
 30
0.0
 11
230.3373540276
 21
41.0699726812
 31
0.0
  0
LINE
  5
122
330
11B
100
AcDbEntity
  8
0
  6
Continuous
 62
     7
370
     0
100
AcDbLine
 10
282.9365642086
 20
42.0699726812
 30
0.0
 11
230.3373540276
 21
42.0699726812
 31
0.0
  0
MTEXT
  5
123
330
11B
100
AcDbEntity
  8
0
  6
Continuous
 62
     7
370
    18
100
AcDbMText
 10
258.4700788058
 20
46.5817095958
 30
0.0
 40
3.5
 41
0.0
 71
     1
 72
     1
  1
26.30
  7
SLDTEXTSTYLE0
 73
     1
 44
1.0
  0
ENDBLK
  5
11D
330
11B
100
AcDbEntity
  8
0
100
AcDbBlockEnd
  0
BLOCK
  5
125
330
124
100
AcDbEntity
  8
0
100
AcDbBlockBegin
  2
SW_CENTERMARKSYMBOL_2
 70
     0
 10
0.0
 20
0.0
 30
0.0
  3
SW_CENTERMARKSYMBOL_2
  1

  0
LINE
  5
127
330
124
100
AcDbEntity
  8
0
  6
Continuous
 62
     0
370
    18
100
AcDbLine
 10
0.0
 20
0.0
 30
0.0
 11
0.0
 21
5.0
 31
0.0
  0
LINE
  5
128
330
124
100
AcDbEntity
  8
0
  6
Continuous
 62
     0
370
    18
100
AcDbLine
 10
0.0
 20
0.0
 30
0.0
 11
-5.0
 21
0.0
 31
0.0
  0
LINE
  5
129
330
124
100
AcDbEntity
  8
0
  6
Continuous
 62
     0
370
    18
100
AcDbLine
 10
0.0
 20
0.0
 30
0.0
 11
0.0
 21
-5.0
 31
0.0
  0
LINE
  5
12A
330
124
100
AcDbEntity
  8
0
  6
Continuous
 62
     0
370
    18
100
AcDbLine
 10
0.0
 20
0.0
 30
0.0
 11
5.0
 21
0.0
 31
0.0
  0
LINE
  5
12B
330
124
100
AcDbEntity
  8
0
  6
Continuous
 62
     0
370
    18
100
AcDbLine
 10
0.0
 20
10.0
 30
0.0
 11
0.0
 21
11.0
 31
0.0
  0
LINE
  5
12C
330
124
100
AcDbEntity
  8
0
  6
Continuous
 62
     0
370
    18
100
AcDbLine
 10
-10.0
 20
0.0
 30
0.0
 11
-11.0
 21
0.0
 31
0.0
  0
LINE
  5
12D
330
124
100
AcDbEntity
  8
0
  6
Continuous
 62
     0
370
    18
100
AcDbLine
 10
0.0
 20
-10.0
 30
0.0
 11
0.0
 21
-11.0
 31
0.0
  0
LINE
  5
12E
330
124
100
AcDbEntity
  8
0
  6
Continuous
 62
     0
370
    18
100
AcDbLine
 10
10.0
 20
0.0
 30
0.0
 11
11.0
 21
0.0
 31
0.0
  0
ENDBLK
  5
126
330
124
100
AcDbEntity
  8
0
100
AcDbBlockEnd
  0
BLOCK
  5
131
330
130
100
AcDbEntity
  8
0
100
AcDbBlockBegin
  2
SW_CENTERMARKSYMBOL_3
 70
     0
 10
0.0
 20
0.0
 30
0.0
  3
SW_CENTERMARKSYMBOL_3
  1

  0
LINE
  5
133
330
130
100
AcDbEntity
  8
0
  6
Continuous
 62
     0
370
    18
100
AcDbLine
 10
0.0
 20
0.0
 30
0.0
 11
0.0
 21
5.0
 31
0.0
  0
LINE
  5
134
330
130
100
AcDbEntity
  8
0
  6
Continuous
 62
     0
370
    18
100
AcDbLine
 10
0.0
 20
0.0
 30
0.0
 11
-5.0
 21
0.0
 31
0.0
  0
LINE
  5
135
330
130
100
AcDbEntity
  8
0
  6
Continuous
 62
     0
370
    18
100
AcDbLine
 10
0.0
 20
0.0
 30
0.0
 11
0.0
 21
-5.0
 31
0.0
  0
LINE
  5
136
330
130
100
AcDbEntity
  8
0
  6
Continuous
 62
     0
370
    18
100
AcDbLine
 10
0.0
 20
0.0
 30
0.0
 11
5.0
 21
0.0
 31
0.0
  0
LINE
  5
137
330
130
100
AcDbEntity
  8
0
  6
Continuous
 62
     0
370
    18
100
AcDbLine
 10
0.0
 20
10.0
 30
0.0
 11
0.0
 21
11.0
 31
0.0
  0
LINE
  5
138
330
130
100
AcDbEntity
  8
0
  6
Continuous
 62
     0
370
    18
100
AcDbLine
 10
-10.0
 20
0.0
 30
0.0
 11
-11.0
 21
0.0
 31
0.0
  0
LINE
  5
139
330
130
100
AcDbEntity
  8
0
  6
Continuous
 62
     0
370
    18
100
AcDbLine
 10
0.0
 20
-10.0
 30
0.0
 11
0.0
 21
-11.0
 31
0.0
  0
LINE
  5
13A
330
130
100
AcDbEntity
  8
0
  6
Continuous
 62
     0
370
    18
100
AcDbLine
 10
10.0
 20
0.0
 30
0.0
 11
11.0
 21
0.0
 31
0.0
  0
ENDBLK
  5
132
330
130
100
AcDbEntity
  8
0
100
AcDbBlockEnd
  0
ENDSEC
  0
SECTION
  2
ENTITIES
  0
LINE
  5
73
330
1F
100
AcDbEntity
  8
0
  6
Continuous
 62
     7
370
    25
100
AcDbLine
 10
230.3373540276
 20
250.1832881566
 30
0.0
 11
230.3373540276
 21
260.1832881566
 31
0.0
  0
LINE
  5
74
330
1F
100
AcDbEntity
  8
0
  6
Continuous
 62
     7
370
    25
100
AcDbLine
 10
312.8509767793
 20
250.1832881566
 30
0.0
 11
230.3373540276
 21
250.1832881566
 31
0.0
  0
LINE
  5
75
330
1F
100
AcDbEntity
  8
0
  6
Continuous
 62
     7
370
    25
100
AcDbLine
 10
312.8509767793
 20
250.1832881566
 30
0.0
 11
312.8509767793
 21
260.1832881566
 31
0.0
  0
LINE
  5
76
330
1F
100
AcDbEntity
  8
0
  6
Continuous
 62
     7
370
    25
100
AcDbLine
 10
312.8509767793
 20
260.1832881566
 30
0.0
 11
230.3373540276
 21
260.1832881566
 31
0.0
  0
LINE
  5
77
330
1F
100
AcDbEntity
  8
0
  6
Continuous
 62
     7
370
    25
100
AcDbLine
 10
312.8509767793
 20
198.4330646786
 30
0.0
 11
230.3373540276
 21
198.4330646786
 31
0.0
  0
CIRCLE
  5
78
330
1F
100
AcDbEntity
  8
0
  6
Continuous
 62
     7
370
    25
100
AcDbCircle
 10
253.0385844619
 20
214.3081764176
 30
0.0
 40
6.0
  0
CIRCLE
  5
79
330
1F
100
AcDbEntity
  8
0
  6
Continuous
 62
     7
370
    25
100
AcDbCircle
 10
290.1497463451
 20
214.3081764176
 30
0.0
 40
5.999999999999943
  0
LINE
  5
7A
330
1F
100
AcDbEntity
  8
0
  6
Continuous
 62
     7
370
    25
100
AcDbLine
 10
230.3373540276
 20
198.4330646786
 30
0.0
 11
230.3373540276
 21
250.1832881566
 31
0.0
  0
LINE
  5
7B
330
1F
100
AcDbEntity
  8
0
  6
Continuous
 62
     7
370
    25
100
AcDbLine
 10
312.8509767793
 20
250.1832881566
 30
0.0
 11
312.8509767793
 21
198.4330646786
 31
0.0
  0
DIMENSION
  5
7C
330
1F
100
AcDbEntity
  8
0
  6
Continuous
 62
     7
370
    18
100
AcDbDimension
  2
_D
 10
221.8019418012
 20
198.4330646786
 30
0.0
 11
221.8019418012
 21
228.746956883
 31
0.0
 70
   160
  1
<>
 71
     2
 42
-1.0
  3
SLDDIMSTYLE0
100
AcDbAlignedDimension
 13
230.3373540276
 23
250.1832881566
 33
0.0
 14
230.3373540276
 24
198.4330646786
 34
0.0
 50
90.0
100
AcDbRotatedDimension
  0
DIMENSION
  5
88
330
1F
100
AcDbEntity
  8
0
  6
Continuous
 62
     7
370
    18
100
AcDbDimension
  2
_D_1
 10
259.0385844619
 20
204.7076647913
 30
0.0
 11
270.8588692673
 21
204.7076647913
 31
0.0
 70
   160
  1
%%c<>
 71
     2
 42
-1.0
  3
SLDDIMSTYLE1
100
AcDbAlignedDimension
 13
247.0385844619
 23
214.3081764176
 33
0.0
 14
259.0385844619
 24
214.3081764176
 34
0.0
100
AcDbRotatedDimension
  0
DIMENSION
  5
96
330
1F
100
AcDbEntity
  8
0
  6
Continuous
 62
     7
370
    18
100
AcDbDimension
  2
_D_2
 10
342.8640599757
 20
260.1832881566
 30
0.0
 11
342.8640599757
 21
228.746956883
 31
0.0
 70
   160
  1
<>
 71
     2
 42
-1.0
  3
SLDDIMSTYLE0
100
AcDbAlignedDimension
 13
301.1497463451
 23
214.3081764176
 33
0.0
 14
312.8509767793
 24
260.1832881566
 34
0.0
 50
90.0
100
AcDbRotatedDimension
  0
DIMENSION
  5
A0
330
1F
100
AcDbEntity
  8
0
  6
Continuous
 62
     7
370
    18
100
AcDbDimension
  2
_D_3
 10
230.3373540276
 20
190.4518055277
 30
0.0
 11
239.5518842177
 21
190.4518055277
 31
0.0
 70
   160
  1
<>
 71
     2
 42
-1.0
  3
SLDDIMSTYLE2
100
AcDbAlignedDimension
 13
253.0385844619
 23
203.3081764176
 33
0.0
 14
230.3373540276
 24
198.4330646786
 34
0.0
100
AcDbRotatedDimension
  0
DIMENSION
  5
AD
330
1F
100
AcDbEntity
  8
0
  6
Continuous
 62
     7
370
    18
100
AcDbDimension
  2
_D_4
 10
230.3373540276
 20
179.0662982364
 30
0.0
 11
264.7307204937
 21
179.0662982364
 31
0.0
 70
   160
  1
<>
 71
     2
 42
-1.0
  3
SLDDIMSTYLE0
100
AcDbAlignedDimension
 13
290.1497463451
 23
203.3081764176
 33
0.0
 14
230.3373540276
 24
198.4330646786
 34
0.0
 50
0.0
100
AcDbRotatedDimension
  0
INSERT
  5
C2
330
1F
100
AcDbEntity
  8
0
  6
Continuous
 62
     7
370
     0
100
AcDbBlockReference
  2
SW_CENTERMARKSYMBOL_0
 10
253.0385844619
 20
214.3081764176
 30
0.0
  0
INSERT
  5
CE
330
1F
100
AcDbEntity
  8
0
  6
Continuous
 62
     7
370
     0
100
AcDbBlockReference
  2
SW_CENTERMARKSYMBOL_1
 10
290.1497463451
 20
214.3081764176
 30
0.0
  0
LINE
  5
CF
330
1F
100
AcDbEntity
  8
0
  6
Continuous
 62
     7
370
    25
100
AcDbLine
 10
230.3373540276
 20
71.0758407777
 30
0.0
 11
230.3373540276
 21
61.0758407777
 31
0.0
  0
LINE
  5
D0
330
1F
100
AcDbEntity
  8
0
  6
Continuous
 62
     7
370
    25
100
AcDbLine
 10
312.8509767793
 20
71.0758407777
 30
0.0
 11
230.3373540276
 21
71.0758407777
 31
0.0
  0
LINE
  5
D1
330
1F
100
AcDbEntity
  8
0
  6
Continuous
 62
     7
370
    25
100
AcDbLine
 10
312.8509767793
 20
71.0758407777
 30
0.0
 11
312.8509767793
 21
61.0758407777
 31
0.0
  0
LINE
  5
D2
330
1F
100
AcDbEntity
  8
0
  6
Continuous
 62
     7
370
    25
100
AcDbLine
 10
312.8509767793
 20
61.0758407777
 30
0.0
 11
230.3373540276
 21
61.0758407777
 31
0.0
  0
CIRCLE
  5
D3
330
1F
100
AcDbEntity
  8
0
  6
Continuous
 62
     7
370
    25
100
AcDbCircle
 10
282.9365642086
 20
99.3040342465
 30
0.0
 40
6.000000000000014
  0
CIRCLE
  5
D4
330
1F
100
AcDbEntity
  8
0
  6
Continuous
 62
     7
370
    25
100
AcDbCircle
 10
253.8442404249
 20
126.756478525
 30
0.0
 40
6.0
  0
LINE
  5
D5
330
1F
100
AcDbEntity
  8
0
  6
Continuous
 62
     7
370
    25
100
AcDbLine
 10
312.8509767793
 20
148.938326004
 30
0.0
 11
230.3373540276
 21
148.938326004
 31
0.0
  0
LINE
  5
D6
330
1F
100
AcDbEntity
  8
0
  6
Continuous
 62
     7
370
    25
100
AcDbLine
 10
230.3373540276
 20
71.0758407777
 30
0.0
 11
230.3373540276
 21
148.938326004
 31
0.0
  0
LINE
  5
D7
330
1F
100
AcDbEntity
  8
0
  6
Continuous
 62
     7
370
    25
100
AcDbLine
 10
312.8509767793
 20
71.0758407777
 30
0.0
 11
312.8509767793
 21
148.938326004
 31
0.0
  0
DIMENSION
  5
D8
330
1F
100
AcDbEntity
  8
0
  6
Continuous
 62
     7
370
    18
100
AcDbDimension
  2
_D_5
 10
247.8442404249
 20
126.756478525
 30
0.0
 11
268.7324217997
 21
126.756488525
 31
0.0
 70
   163
  1
<>
 71
     1
 42
-1.0
  3
SLDDIMSTYLE3
100
AcDbDiametricDimension
 15
259.8442404249
 25
126.756478525
 35
0.0
 40
0.0
  0
DIMENSION
  5
E5
330
1F
100
AcDbEntity
  8
0
  6
Continuous
 62
     7
370
    18
100
AcDbDimension
  2
_D_6
 10
230.3373540276
 20
162.5619326231
 30
0.0
 11
270.7750504561
 21
162.5619326231
 31
0.0
 70
   160
  1
<>
 71
     2
 42
-1.0
  3
SLDDIMSTYLE0
100
AcDbAlignedDimension
 13
312.8509767793
 23
148.938326004
 33
0.0
 14
230.3373540276
 24
148.938326004
 34
0.0
 50
0.0
100
AcDbRotatedDimension
  0
DIMENSION
  5
EF
330
1F
100
AcDbEntity
  8
0
  6
Continuous
 62
     7
370
    18
100
AcDbDimension
  2
_D_7
 10
322.8509767793
 20
71.0758407777
 30
0.0
 11
322.8509767793
 21
108.4350564291
 31
0.0
 70
   160
  1
<>
 71
     2
 42
-1.0
  3
SLDDIMSTYLE0
100
AcDbAlignedDimension
 13
312.8509767793
 23
148.938326004
 33
0.0
 14
312.8509767793
 24
71.0758407777
 34
0.0
 50
90.0
100
AcDbRotatedDimension
  0
DIMENSION
  5
F9
330
1F
100
AcDbEntity
  8
0
  6
Continuous
 62
     7
370
    18
100
AcDbDimension
  2
_D_8
 10
204.7886164116
 20
61.0758407777
 30
0.0
 11
204.7886164116
 21
84.4183383087
 31
0.0
 70
   160
  1
<>
 71
     2
 42
-1.0
  3
SLDDIMSTYLE0
100
AcDbAlignedDimension
 13
271.9365642086
 23
99.3040342465
 33
0.0
 14
230.3373540276
 24
61.0758407777
 34
0.0
 50
90.0
100
AcDbRotatedDimension
  0
DIMENSION
  5
103
330
1F
100
AcDbEntity
  8
0
  6
Continuous
 62
     7
370
    18
100
AcDbDimension
  2
_D_9
 10
193.1010746435
 20
61.0758407777
 30
0.0
 11
193.1010746435
 21
91.4005061182
 31
0.0
 70
   160
  1
<>
 71
     2
 42
-1.0
  3
SLDDIMSTYLE0
100
AcDbAlignedDimension
 13
242.8442404249
 23
126.756478525
 33
0.0
 14
230.3373540276
 24
61.0758407777
 34
0.0
 50
90.0
100
AcDbRotatedDimension
  0
DIMENSION
  5
10D
330
1F
100
AcDbEntity
  8
0
  6
Continuous
 62
     7
370
    18
100
AcDbDimension
  2
_D_10
 10
230.3373540276
 20
53.3021556792
 30
0.0
 11
244.7084019314
 21
53.3021556792
 31
0.0
 70
   160
  1
<>
 71
     2
 42
-1.0
  3
SLDDIMSTYLE2
100
AcDbAlignedDimension
 13
253.8442404249
 23
115.756478525
 33
0.0
 14
230.3373540276
 24
61.0758407777
 34
0.0
 50
0.0
100
AcDbRotatedDimension
  0
DIMENSION
  5
119
330
1F
100
AcDbEntity
  8
0
  6
Continuous
 62
     7
370
    18
100
AcDbDimension
  2
_D_11
 10
230.3373540276
 20
42.0699726812
 30
0.0
 11
264.2888290495
 21
42.0699726812
 31
0.0
 70
   160
  1
<>
 71
     2
 42
-1.0
  3
SLDDIMSTYLE4
100
AcDbAlignedDimension
 13
282.9365642086
 23
88.3040342465
 33
0.0
 14
230.3373540276
 24
61.0758407777
 34
0.0
 50
0.0
100
AcDbRotatedDimension
  0
INSERT
  5
12F
330
1F
100
AcDbEntity
  8
0
  6
Continuous
 62
     7
370
     0
100
AcDbBlockReference
  2
SW_CENTERMARKSYMBOL_2
 10
253.8442404249
 20
126.756478525
 30
0.0
  0
INSERT
  5
13B
330
1F
100
AcDbEntity
  8
0
  6
Continuous
 62
     7
370
     0
100
AcDbBlockReference
  2
SW_CENTERMARKSYMBOL_3
 10
282.9365642086
 20
99.3040342465
 30
0.0
  0
LINE
  5
13C
330
1F
100
AcDbEntity
  8
0
  6
Continuous
 62
     7
370
    25
100
AcDbLine
 10
81.8534513716
 20
157.2757165845
 30
0.0
 11
143.981610487
 21
193.1415394163
 31
0.0
  0
LINE
  5
13D
330
1F
100
AcDbEntity
  8
0
  6
Continuous
 62
     7
370
    25
100
AcDbLine
 10
143.981610487
 20
184.9761312974
 30
0.0
 11
143.981610487
 21
193.1415394163
 31
0.0
  0
LINE
  5
13E
330
1F
100
AcDbEntity
  8
0
  6
Continuous
 62
     7
370
    25
100
AcDbLine
 10
88.9245191835
 20
153.1923490247
 30
0.0
 11
143.981610487
 21
184.9761312974
 31
0.0
  0
LINE
  5
13F
330
1F
100
AcDbEntity
  8
0
  6
Continuous
 62
     7
370
    25
100
AcDbLine
 10
88.9245191835
 20
110.9361795307
 30
0.0
 11
88.9245191835
 21
153.1923490247
 31
0.0
  0
LINE
  5
140
330
1F
100
AcDbEntity
  8
0
  6
Continuous
 62
     7
370
    25
100
AcDbLine
 10
88.9245191835
 20
110.9361795307
 30
0.0
 11
81.8534513716
 21
106.8541389716
 31
0.0
  0
LINE
  5
141
330
1F
100
AcDbEntity
  8
0
  6
Continuous
 62
     7
370
    25
100
AcDbLine
 10
81.8534513716
 20
106.8541389716
 30
0.0
 11
81.8534513716
 21
157.2757165845
 31
0.0
  0
LINE
  5
142
330
1F
100
AcDbEntity
  8
0
  6
Continuous
 62
     7
370
    25
100
AcDbLine
 10
202.3275526751
 20
151.2937358222
 30
0.0
 11
202.3275526751
 21
159.4591439411
 31
0.0
  0
LINE
  5
143
330
1F
100
AcDbEntity
  8
0
  6
Continuous
 62
     7
370
    25
100
AcDbLine
 10
202.3275526751
 20
151.2937358222
 30
0.0
 11
143.981610487
 21
184.9761312974
 31
0.0
  0
LINE
  5
144
330
1F
100
AcDbEntity
  8
0
  6
Continuous
 62
     7
370
    25
100
AcDbLine
 10
202.3275526751
 20
159.4591439411
 30
0.0
 11
143.981610487
 21
193.1415394163
 31
0.0
  0
LWPOLYLINE
  5
145
330
1F
100
AcDbEntity
  8
0
  6
Continuous
 62
     7
370
    25
100
AcDbPolyline
 90
       51
 70
   128
 43
0.0
 10
141.8354837228
 20
140.7947768206
 10
141.3371943357
 20
141.1210588918
 10
140.9136722479
 20
141.4808210306
 10
140.5715966558
 20
141.8683895732
 10
140.3163622959
 20
142.2776523323
 10
140.1519943663
 20
142.7021549896
 10
140.0810850477
 20
143.1352028846
 10
140.1047526223
 20
143.5699665934
 10
140.2226238383
 20
143.9995896325
 10
140.4328397962
 20
144.41729659
 10
140.7320852648
 20
144.8164999775
 10
141.1156409643
 20
145.1909041193
 10
141.5774579921
 20
145.5346044384
 10
142.110253218
 20
145.8421805753
 10
142.7056241428
 20
146.1087818707
 10
143.3541814115
 20
146.3302038629
 10
144.0456968884
 20
146.5029545948
 10
144.7692649615
 20
146.6243096842
 10
145.51347453
 20
146.6923552888
 10
146.2665889644
 20
146.7060182888
 10
147.0167312002
 20
146.6650832105
 10
147.7520710462
 20
146.5701956245
 10
148.4610117537
 20
146.4228519648
 10
149.1323729044
 20
146.2253759289
 10
149.7555667318
 20
145.9808818318
 10
150.320765097
 20
145.6932254916
 10
150.8190544842
 20
145.3669434205
 10
151.2425765719
 20
145.0071812816
 10
151.584652164
 20
144.619612739
 10
151.839886524
 20
144.2103499799
 10
152.0042544535
 20
143.7858473226
 10
152.0751637721
 20
143.3527994276
 10
152.0514961975
 20
142.9180357188
 10
151.9336249816
 20
142.4884126797
 10
151.7234090236
 20
142.0707057223
 10
151.424163555
 20
141.6715023347
 10
151.0406078556
 20
141.2970981929
 10
150.5787908277
 20
140.9533978739
 10
150.0459956019
 20
140.6458217369
 10
149.450624677
 20
140.3792204415
 10
148.8020674084
 20
140.1577984493
 10
148.1105519314
 20
139.9850477174
 10
147.3869838583
 20
139.863692628
 10
146.6427742898
 20
139.7956470234
 10
145.8896598555
 20
139.7819840234
 10
145.1395176197
 20
139.8229191017
 10
144.4041777737
 20
139.9178066877
 10
143.6952370661
 20
140.0651503474
 10
143.0238759154
 20
140.2626263833
 10
142.400682088
 20
140.5071204804
 10
141.8354837228
 20
140.7947768206
  0
LWPOLYLINE
  5
146
330
1F
100
AcDbEntity
  8
0
  6
Continuous
 62
     7
370
    25
100
AcDbPolyline
 90
       51
 70
   128
 43
0.0
 10
140.6759138043
 20
163.8765804842
 10
141.2411121695
 20
163.5889241439
 10
141.8643059969
 20
163.3444300469
 10
142.5356671476
 20
163.146954011
 10
143.2446078552
 20
162.9996103513
 10
143.9799477012
 20
162.9047227653
 10
144.730089937
 20
162.863787687
 10
145.4832043714
 20
162.877450687
 10
146.2274139398
 20
162.9454962915
 10
146.9509820129
 20
163.0668513809
 10
147.6424974899
 20
163.2396021129
 10
148.2910547586
 20
163.4610241051
 10
148.8864256834
 20
163.7276254005
 10
149.4192209092
 20
164.0352015374
 10
149.8810379371
 20
164.3789018565
 10
150.2645936366
 20
164.7533059982
 10
150.5638391052
 20
165.1525093858
 10
150.7740550631
 20
165.5702163433
 10
150.8919262791
 20
165.9998393824
 10
150.9155938536
 20
166.4346030911
 10
150.844684535
 20
166.8676509861
 10
150.6803166055
 20
167.2921536434
 10
150.4250822455
 20
167.7014164025
 10
150.0830066535
 20
168.0889849452
 10
149.6594845657
 20
168.448747084
 10
149.1611951786
 20
168.7750291551
 10
148.5959968134
 20
169.0626854954
 10
147.9728029859
 20
169.3071795925
 10
147.3014418352
 20
169.5046556284
 10
146.5925011277
 20
169.6519992881
 10
145.8571612817
 20
169.746886874
 10
145.1070190459
 20
169.7878219524
 10
144.3539046115
 20
169.7741589524
 10
143.6096950431
 20
169.7061133478
 10
142.88612697
 20
169.5847582584
 10
142.194611493
 20
169.4120075265
 10
141.5460542243
 20
169.1905855343
 10
140.9506832995
 20
168.9239842388
 10
140.4178880737
 20
168.6164081019
 10
139.9560710458
 20
168.2727077829
 10
139.5725153463
 20
167.8983036411
 10
139.2732698777
 20
167.4991002535
 10
139.0630539198
 20
167.0813932961
 10
138.9451827038
 20
166.651770257
 10
138.9215151292
 20
166.2170065482
 10
138.9924244479
 20
165.7839586532
 10
139.1567923774
 20
165.3594559959
 10
139.4120267373
 20
164.9501932368
 10
139.7541023294
 20
164.5626246941
 10
140.1776244172
 20
164.2028625553
 10
140.6759138043
 20
163.8765804842
  0
LINE
  5
147
330
1F
100
AcDbEntity
  8
0
  6
Continuous
 62
     7
370
    25
100
AcDbLine
 10
147.2704613715
 20
119.5099535495
 30
0.0
 11
202.3275526751
 21
151.2937358222
 31
0.0
  0
LINE
  5
148
330
1F
100
AcDbEntity
  8
0
  6
Continuous
 62
     7
370
    25
100
AcDbLine
 10
147.2704613715
 20
119.5099535495
 30
0.0
 11
88.9245191835
 21
153.1923490247
 31
0.0
  0
LINE
  5
149
330
1F
100
AcDbEntity
  8
0
  6
Continuous
 62
     7
370
    25
100
AcDbLine
 10
147.2704613715
 20
119.5099535495
 30
0.0
 11
147.2704613715
 21
77.2537840555
 31
0.0
  0
LINE
  5
14A
330
1F
100
AcDbEntity
  8
0
  6
Continuous
 62
     7
370
    25
100
AcDbLine
 10
147.2704613715
 20
77.2537840555
 30
0.0
 11
88.9245191835
 21
110.9361795307
 31
0.0
  0
LWPOLYLINE
  5
14B
330
1F
100
AcDbEntity
  8
0
  6
Continuous
 62
     7
370
    25
100
AcDbPolyline
 90
       51
 70
   128
 43
0.0
 10
109.219353852
 20
112.1828974859
 10
109.1858993629
 20
111.5881721496
 10
109.0860634931
 20
111.041451718
 10
108.9214207138
 20
110.5513582989
 10
108.69456754
 20
110.1256209582
 10
108.4090815817
 20
109.7709538283
 10
108.0694651232
 20
109.4929502214
 10
107.6810741187
 20
109.2959944208
 10
107.2500337265
 20
109.1831925368
 10
106.783141711
 20
109.1563235228
 10
106.2877612382
 20
109.2158111189
 10
105.7717047541
 20
109.3607171704
 10
105.2431107778
 20
109.5887564223
 10
104.7103155519
 20
109.8963325592
 10
104.1817215756
 20
110.2785949218
 10
103.6656650915
 20
110.7295150043
 10
103.1702846187
 20
111.2419815276
 10
102.7033926032
 20
111.8079125885
 10
102.272352211
 20
112.4183831162
 10
101.8839612065
 20
113.0637656256
 10
101.5443447479
 20
113.7338820491
 10
101.2588587897
 20
114.4181642504
 10
101.0320056159
 20
115.1058206904
 10
100.8673628366
 20
115.7860066163
 10
100.7675269667
 20
116.4479950897
 10
100.7340724777
 20
117.0813461569
 10
100.7675269667
 20
117.6760714932
 10
100.8673628366
 20
118.2227919248
 10
101.0320056159
 20
118.7128853439
 10
101.2588587897
 20
119.1386226846
 10
101.5443447479
 20
119.4932898146
 10
101.8839612065
 20
119.7712934214
 10
102.272352211
 20
119.9682492221
 10
102.7033926032
 20
120.081051106
 10
103.1702846187
 20
120.1079201201
 10
103.6656650915
 20
120.0484325239
 10
104.1817215756
 20
119.9035264724
 10
104.7103155519
 20
119.6754872206
 10
105.2431107778
 20
119.3679110836
 10
105.7717047541
 20
118.985648721
 10
106.2877612382
 20
118.5347286385
 10
106.783141711
 20
118.0222621152
 10
107.2500337265
 20
117.4563310543
 10
107.6810741187
 20
116.8458605267
 10
108.0694651232
 20
116.2004780172
 10
108.4090815817
 20
115.5303615937
 10
108.69456754
 20
114.8460793924
 10
108.9214207138
 20
114.1584229524
 10
109.0860634931
 20
113.4782370265
 10
109.1858993629
 20
112.8162485531
 10
109.219353852
 20
112.1828974859
  0
LWPOLYLINE
  5
14C
330
1F
100
AcDbEntity
  8
0
  6
Continuous
 62
     7
370
    25
100
AcDbPolyline
 90
       51
 70
   128
 43
0.0
 10
135.4609080773
 20
97.0339706856
 10
135.4274535883
 20
96.4392453493
 10
135.3276177184
 20
95.8925249177
 10
135.1629749391
 20
95.4024314986
 10
134.9361217653
 20
94.9766941579
 10
134.6506358071
 20
94.6220270279
 10
134.3110193485
 20
94.3440234211
 10
133.922628344
 20
94.1470676204
 10
133.4915879518
 20
94.0342657365
 10
133.0246959363
 20
94.0073967224
 10
132.5293154635
 20
94.0668843186
 10
132.0132589794
 20
94.2117903701
 10
131.4846650031
 20
94.4398296219
 10
130.9518697772
 20
94.7474057589
 10
130.4232758009
 20
95.1296681215
 10
129.9072193168
 20
95.580588204
 10
129.411838844
 20
96.0930547273
 10
128.9449468285
 20
96.6589857882
 10
128.5139064363
 20
97.2694563159
 10
128.1255154318
 20
97.9148388253
 10
127.7858989733
 20
98.5849552488
 10
127.500413015
 20
99.2692374501
 10
127.2735598412
 20
99.9568938901
 10
127.1089170619
 20
100.637079816
 10
127.0090811921
 20
101.2990682894
 10
126.975626703
 20
101.9324193566
 10
127.0090811921
 20
102.5271446929
 10
127.1089170619
 20
103.0738651245
 10
127.2735598412
 20
103.5639585436
 10
127.500413015
 20
103.9896958843
 10
127.7858989733
 20
104.3443630143
 10
128.1255154318
 20
104.6223666211
 10
128.5139064363
 20
104.8193224218
 10
128.9449468285
 20
104.9321243057
 10
129.411838844
 20
104.9589933198
 10
129.9072193168
 20
104.8995057236
 10
130.4232758009
 20
104.7545996721
 10
130.9518697772
 20
104.5265604203
 10
131.4846650031
 20
104.2189842833
 10
132.0132589794
 20
103.8367219207
 10
132.5293154635
 20
103.3858018382
 10
133.0246959363
 20
102.8733353149
 10
133.4915879518
 20
102.307404254
 10
133.922628344
 20
101.6969337263
 10
134.3110193485
 20
101.0515512169
 10
134.6506358071
 20
100.3814347934
 10
134.9361217653
 20
99.6971525921
 10
135.1629749391
 20
99.0094961521
 10
135.3276177184
 20
98.3293102262
 10
135.4274535883
 20
97.6673217528
 10
135.4609080773
 20
97.0339706856
  0
LINE
  5
14D
330
1F
100
AcDbEntity
  8
0
  6
Continuous
 62
     7
370
    25
100
AcDbLine
 10
147.2704613715
 20
77.2537840555
 30
0.0
 11
140.1993935596
 21
73.1717434964
 31
0.0
  0
LINE
  5
14E
330
1F
100
AcDbEntity
  8
0
  6
Continuous
 62
     7
370
    25
100
AcDbLine
 10
140.1993935596
 20
73.1717434964
 30
0.0
 11
81.8534513716
 21
106.8541389716
 31
0.0
  0
MTEXT
  5
150
330
1F
100
AcDbEntity
  8
0
  6
Continuous
 62
     7
100
AcDbMText
 10
0.0
 20
14.3305089537
 30
0.0
 40
5.1381
 41
0.0
 71
     1
 72
     1
  1
SOLIDWORKS Educational Product.
  7
SLDTEXTSTYLE1
 73
     1
 44
1.0
  0
MTEXT
  5
151
330
1F
100
AcDbEntity
  8
0
  6
Continuous
 62
     7
100
AcDbMText
 10
0.0
 20
6.6233589537
 30
0.0
 40
5.1381
 41
0.0
 71
     1
 72
     1
  1
For Instructional Use Only.
  7
SLDTEXTSTYLE1
 73
     1
 44
1.0
  0
ENDSEC
  0
SECTION
  2
OBJECTS
  0
DICTIONARY
  5
C
330
0
100
AcDbDictionary
281
     1
  3
ACAD_GROUP
350
D
  3
ACAD_LAYOUT
350
1A
  3
ACAD_MLINESTYLE
350
17
  3
ACAD_PLOTSETTINGS
350
19
  3
ACAD_PLOTSTYLENAME
350
E
  3
ACAD_SCALELIST
350
47
  3
DWGPROPS
350
152
  0
DICTIONARY
  5
D
102
{ACAD_REACTORS
330
C
102
}
330
C
100
AcDbDictionary
281
     1
  0
DICTIONARY
  5
1A
102
{ACAD_REACTORS
330
C
102
}
330
C
100
AcDbDictionary
281
     1
  3
Layout1
350
1E
  3
Layout2
350
26
  3
Model
350
22
  0
DICTIONARY
  5
17
102
{ACAD_REACTORS
330
C
102
}
330
C
100
AcDbDictionary
281
     1
  3
Standard
350
18
  0
DICTIONARY
  5
19
102
{ACAD_REACTORS
330
C
102
}
330
C
100
AcDbDictionary
281
     1
  0
ACDBDICTIONARYWDFLT
  5
E
102
{ACAD_REACTORS
330
C
102
}
330
C
100
AcDbDictionary
281
     1
  3
Normal
350
F
100
AcDbDictionaryWithDefault
340
F
  0
DICTIONARY
  5
47
102
{ACAD_REACTORS
330
C
102
}
330
C
100
AcDbDictionary
281
     1
  3
A0
350
48
  3
A1
350
49
  3
A2
350
4A
  3
A3
350
4B
  3
A4
350
4C
  3
A5
350
4D
  3
A6
350
4E
  3
A7
350
4F
  3
A8
350
50
  3
A9
350
51
  3
B0
350
52
  3
B1
350
53
  3
B2
350
54
  3
B3
350
55
  3
B4
350
56
  3
B5
350
57
  3
B6
350
58
  3
B7
350
59
  3
B8
350
5A
  3
B9
350
5B
  3
C0
350
5C
  3
C1
350
5D
  3
C2
350
5E
  3
C3
350
5F
  3
C4
350
60
  3
C5
350
61
  3
C6
350
62
  3
C7
350
63
  3
C8
350
64
  3
C9
350
65
  3
D0
350
66
  3
D1
350
67
  3
D2
350
68
  0
XRECORD
  5
152
102
{ACAD_REACTORS
330
C
102
}
330
C
100
AcDbXrecord
280
     1
  1
DWGPROPS COOKIE
  2

  3

  4

  6

  7

  8
neils
  9

300
=
301
=
302
=
303
=
304
=
305
=
306
=
307
=
308
=
309
=
 40
0.0
 41
2459661.89106287
 42
2459661.891065671
  1

 90
        0
  0
LAYOUT
  5
1E
102
{ACAD_REACTORS
330
1A
102
}
330
1A
100
AcDbPlotSettings
  1

  2
none_device
  4

  6

 40
0.0
 41
0.0
 42
0.0
 43
0.0
 44
0.0
 45
0.0
 46
0.0
 47
0.0
 48
0.0
 49
0.0
140
0.0
141
0.0
142
1.0
143
1.0
 70
   688
 72
     1
 73
     0
 74
     5
  7

 75
    16
147
1.0
148
0.0
149
0.0
100
AcDbLayout
  1
Layout1
 70
     1
 71
     1
 10
0.0
 20
0.0
 11
420.0
 21
297.0
 12
0.0
 22
0.0
 32
0.0
 14
1.0000000000E+20
 24
1.0000000000E+20
 34
1.0000000000E+20
 15
-1.0000000000E+20
 25
-1.0000000000E+20
 35
-1.0000000000E+20
146
0.0
 13
0.0
 23
0.0
 33
0.0
 16
1.0
 26
0.0
 36
0.0
 17
0.0
 27
1.0
 37
0.0
 76
     0
330
1B
  0
LAYOUT
  5
26
102
{ACAD_REACTORS
330
1A
102
}
330
1A
100
AcDbPlotSettings
  1

  2
none_device
  4

  6

 40
0.0
 41
0.0
 42
0.0
 43
0.0
 44
0.0
 45
0.0
 46
0.0
 47
0.0
 48
0.0
 49
0.0
140
0.0
141
0.0
142
1.0
143
1.0
 70
   688
 72
     1
 73
     0
 74
     5
  7

 75
    16
147
1.0
148
0.0
149
0.0
100
AcDbLayout
  1
Layout2
 70
     1
 71
     2
 10
0.0
 20
0.0
 11
0.0
 21
0.0
 12
0.0
 22
0.0
 32
0.0
 14
0.0
 24
0.0
 34
0.0
 15
0.0
 25
0.0
 35
0.0
146
0.0
 13
0.0
 23
0.0
 33
0.0
 16
1.0
 26
0.0
 36
0.0
 17
0.0
 27
1.0
 37
0.0
 76
     0
330
23
  0
LAYOUT
  5
22
102
{ACAD_REACTORS
330
1A
102
}
330
1A
100
AcDbPlotSettings
  1

  2
none_device
  4
Letter_(8.50_x_11.00_Inches)
  6

 40
6.35
 41
6.35
 42
6.35000508
 43
6.35000508
 44
215.9
 45
279.4
 46
0.0
 47
0.0
 48
0.0
 49
0.0
140
0.0
141
0.0
142
1.0
143
1.0
 70
  1712
 72
     1
 73
     0
 74
     0
  7

 75
     0
147
1.0
148
0.0
149
0.0
100
AcDbLayout
  1
Model
 70
     1
 71
     0
 10
0.0
 20
0.0
 11
420.0
 21
297.0
 12
0.0
 22
0.0
 32
0.0
 14
0.0
 24
0.0
 34
0.0
 15
420.0
 25
297.0
 35
0.0
146
0.0
 13
0.0
 23
0.0
 33
0.0
 16
1.0
 26
0.0
 36
0.0
 17
0.0
 27
1.0
 37
0.0
 76
     0
330
1F
331
29
  0
MLINESTYLE
  5
18
102
{ACAD_REACTORS
330
17
102
}
330
17
100
AcDbMlineStyle
  2
Standard
 70
     0
  3

 62
   256
 51
90.0
 52
90.0
 71
     2
 49
0.5
 62
   256
  6
BYLAYER
 49
-0.5
 62
   256
  6
BYLAYER
  0
ACDBPLACEHOLDER
  5
F
102
{ACAD_REACTORS
330
E
102
}
330
E
  0
SCALE
  5
48
102
{ACAD_REACTORS
330
47
102
}
330
47
100
AcDbScale
 70
     0
300
1:1
140
1.0
141
1.0
290
     1
  0
SCALE
  5
49
102
{ACAD_REACTORS
330
47
102
}
330
47
100
AcDbScale
 70
     0
300
1:2
140
1.0
141
2.0
290
     0
  0
SCALE
  5
4A
102
{ACAD_REACTORS
330
47
102
}
330
47
100
AcDbScale
 70
     0
300
1:4
140
1.0
141
4.0
290
     0
  0
SCALE
  5
4B
102
{ACAD_REACTORS
330
47
102
}
330
47
100
AcDbScale
 70
     0
300
1:5
140
1.0
141
5.0
290
     0
  0
SCALE
  5
4C
102
{ACAD_REACTORS
330
47
102
}
330
47
100
AcDbScale
 70
     0
300
1:8
140
1.0
141
8.0
290
     0
  0
SCALE
  5
4D
102
{ACAD_REACTORS
330
47
102
}
330
47
100
AcDbScale
 70
     0
300
1:10
140
1.0
141
10.0
290
     0
  0
SCALE
  5
4E
102
{ACAD_REACTORS
330
47
102
}
330
47
100
AcDbScale
 70
     0
300
1:16
140
1.0
141
16.0
290
     0
  0
SCALE
  5
4F
102
{ACAD_REACTORS
330
47
102
}
330
47
100
AcDbScale
 70
     0
300
1:20
140
1.0
141
20.0
290
     0
  0
SCALE
  5
50
102
{ACAD_REACTORS
330
47
102
}
330
47
100
AcDbScale
 70
     0
300
1:30
140
1.0
141
30.0
290
     0
  0
SCALE
  5
51
102
{ACAD_REACTORS
330
47
102
}
330
47
100
AcDbScale
 70
     0
300
1:40
140
1.0
141
40.0
290
     0
  0
SCALE
  5
52
102
{ACAD_REACTORS
330
47
102
}
330
47
100
AcDbScale
 70
     0
300
1:50
140
1.0
141
50.0
290
     0
  0
SCALE
  5
53
102
{ACAD_REACTORS
330
47
102
}
330
47
100
AcDbScale
 70
     0
300
1:100
140
1.0
141
100.0
290
     0
  0
SCALE
  5
54
102
{ACAD_REACTORS
330
47
102
}
330
47
100
AcDbScale
 70
     0
300
2:1
140
2.0
141
1.0
290
     0
  0
SCALE
  5
55
102
{ACAD_REACTORS
330
47
102
}
330
47
100
AcDbScale
 70
     0
300
4:1
140
4.0
141
1.0
290
     0
  0
SCALE
  5
56
102
{ACAD_REACTORS
330
47
102
}
330
47
100
AcDbScale
 70
     0
300
8:1
140
8.0
141
1.0
290
     0
  0
SCALE
  5
57
102
{ACAD_REACTORS
330
47
102
}
330
47
100
AcDbScale
 70
     0
300
10:1
140
10.0
141
1.0
290
     0
  0
SCALE
  5
58
102
{ACAD_REACTORS
330
47
102
}
330
47
100
AcDbScale
 70
     0
300
100:1
140
100.0
141
1.0
290
     0
  0
SCALE
  5
59
102
{ACAD_REACTORS
330
47
102
}
330
47
100
AcDbScale
 70
     0
300
1/128" = 1'-0"
140
0.0078125
141
12.0
290
     0
  0
SCALE
  5
5A
102
{ACAD_REACTORS
330
47
102
}
330
47
100
AcDbScale
 70
     0
300
1/64" = 1'-0"
140
0.015625
141
12.0
290
     0
  0
SCALE
  5
5B
102
{ACAD_REACTORS
330
47
102
}
330
47
100
AcDbScale
 70
     0
300
1/32" = 1'-0"
140
0.03125
141
12.0
290
     0
  0
SCALE
  5
5C
102
{ACAD_REACTORS
330
47
102
}
330
47
100
AcDbScale
 70
     0
300
1/16" = 1'-0"
140
0.0625
141
12.0
290
     0
  0
SCALE
  5
5D
102
{ACAD_REACTORS
330
47
102
}
330
47
100
AcDbScale
 70
     0
300
3/32" = 1'-0"
140
0.09375
141
12.0
290
     0
  0
SCALE
  5
5E
102
{ACAD_REACTORS
330
47
102
}
330
47
100
AcDbScale
 70
     0
300
1/8" = 1'-0"
140
0.125
141
12.0
290
     0
  0
SCALE
  5
5F
102
{ACAD_REACTORS
330
47
102
}
330
47
100
AcDbScale
 70
     0
300
3/16" = 1'-0"
140
0.1875
141
12.0
290
     0
  0
SCALE
  5
60
102
{ACAD_REACTORS
330
47
102
}
330
47
100
AcDbScale
 70
     0
300
1/4" = 1'-0"
140
0.25
141
12.0
290
     0
  0
SCALE
  5
61
102
{ACAD_REACTORS
330
47
102
}
330
47
100
AcDbScale
 70
     0
300
3/8" = 1'-0"
140
0.375
141
12.0
290
     0
  0
SCALE
  5
62
102
{ACAD_REACTORS
330
47
102
}
330
47
100
AcDbScale
 70
     0
300
1/2" = 1'-0"
140
0.5
141
12.0
290
     0
  0
SCALE
  5
63
102
{ACAD_REACTORS
330
47
102
}
330
47
100
AcDbScale
 70
     0
300
3/4" = 1'-0"
140
0.75
141
12.0
290
     0
  0
SCALE
  5
64
102
{ACAD_REACTORS
330
47
102
}
330
47
100
AcDbScale
 70
     0
300
1" = 1'-0"
140
1.0
141
12.0
290
     0
  0
SCALE
  5
65
102
{ACAD_REACTORS
330
47
102
}
330
47
100
AcDbScale
 70
     0
300
1-1/2" = 1'-0"
140
1.5
141
12.0
290
     0
  0
SCALE
  5
66
102
{ACAD_REACTORS
330
47
102
}
330
47
100
AcDbScale
 70
     0
300
3" = 1'-0"
140
3.0
141
12.0
290
     0
  0
SCALE
  5
67
102
{ACAD_REACTORS
330
47
102
}
330
47
100
AcDbScale
 70
     0
300
6" = 1'-0"
140
6.0
141
12.0
290
     0
  0
SCALE
  5
68
102
{ACAD_REACTORS
330
47
102
}
330
47
100
AcDbScale
 70
     0
300
1'-0" = 1'-0"
140
12.0
141
12.0
290
     0
  0
ENDSEC
  0
EOF
